%TF.GenerationSoftware,KiCad,Pcbnew,(5.1.6)-1*%
%TF.CreationDate,2020-09-01T20:06:50-04:00*%
%TF.ProjectId,autopilotv1,6175746f-7069-46c6-9f74-76312e6b6963,rev?*%
%TF.SameCoordinates,Original*%
%TF.FileFunction,Legend,Top*%
%TF.FilePolarity,Positive*%
%FSLAX46Y46*%
G04 Gerber Fmt 4.6, Leading zero omitted, Abs format (unit mm)*
G04 Created by KiCad (PCBNEW (5.1.6)-1) date 2020-09-01 20:06:50*
%MOMM*%
%LPD*%
G01*
G04 APERTURE LIST*
%ADD10C,0.150000*%
%ADD11C,0.120000*%
G04 APERTURE END LIST*
D10*
X139905952Y-146877380D02*
X139905952Y-147591666D01*
X139858333Y-147734523D01*
X139763095Y-147829761D01*
X139620238Y-147877380D01*
X139525000Y-147877380D01*
X140858333Y-147877380D02*
X140382142Y-147877380D01*
X140382142Y-146877380D01*
X141763095Y-147782142D02*
X141715476Y-147829761D01*
X141572619Y-147877380D01*
X141477380Y-147877380D01*
X141334523Y-147829761D01*
X141239285Y-147734523D01*
X141191666Y-147639285D01*
X141144047Y-147448809D01*
X141144047Y-147305952D01*
X141191666Y-147115476D01*
X141239285Y-147020238D01*
X141334523Y-146925000D01*
X141477380Y-146877380D01*
X141572619Y-146877380D01*
X141715476Y-146925000D01*
X141763095Y-146972619D01*
X142477380Y-146877380D02*
X142477380Y-147591666D01*
X142429761Y-147734523D01*
X142334523Y-147829761D01*
X142191666Y-147877380D01*
X142096428Y-147877380D01*
X143429761Y-147877380D02*
X142953571Y-147877380D01*
X142953571Y-146877380D01*
X144334523Y-147782142D02*
X144286904Y-147829761D01*
X144144047Y-147877380D01*
X144048809Y-147877380D01*
X143905952Y-147829761D01*
X143810714Y-147734523D01*
X143763095Y-147639285D01*
X143715476Y-147448809D01*
X143715476Y-147305952D01*
X143763095Y-147115476D01*
X143810714Y-147020238D01*
X143905952Y-146925000D01*
X144048809Y-146877380D01*
X144144047Y-146877380D01*
X144286904Y-146925000D01*
X144334523Y-146972619D01*
X145048809Y-146877380D02*
X145048809Y-147591666D01*
X145001190Y-147734523D01*
X144905952Y-147829761D01*
X144763095Y-147877380D01*
X144667857Y-147877380D01*
X146001190Y-147877380D02*
X145525000Y-147877380D01*
X145525000Y-146877380D01*
X146905952Y-147782142D02*
X146858333Y-147829761D01*
X146715476Y-147877380D01*
X146620238Y-147877380D01*
X146477380Y-147829761D01*
X146382142Y-147734523D01*
X146334523Y-147639285D01*
X146286904Y-147448809D01*
X146286904Y-147305952D01*
X146334523Y-147115476D01*
X146382142Y-147020238D01*
X146477380Y-146925000D01*
X146620238Y-146877380D01*
X146715476Y-146877380D01*
X146858333Y-146925000D01*
X146905952Y-146972619D01*
X147620238Y-146877380D02*
X147620238Y-147591666D01*
X147572619Y-147734523D01*
X147477380Y-147829761D01*
X147334523Y-147877380D01*
X147239285Y-147877380D01*
X148572619Y-147877380D02*
X148096428Y-147877380D01*
X148096428Y-146877380D01*
X149477380Y-147782142D02*
X149429761Y-147829761D01*
X149286904Y-147877380D01*
X149191666Y-147877380D01*
X149048809Y-147829761D01*
X148953571Y-147734523D01*
X148905952Y-147639285D01*
X148858333Y-147448809D01*
X148858333Y-147305952D01*
X148905952Y-147115476D01*
X148953571Y-147020238D01*
X149048809Y-146925000D01*
X149191666Y-146877380D01*
X149286904Y-146877380D01*
X149429761Y-146925000D01*
X149477380Y-146972619D01*
X103523809Y-104357142D02*
X103476190Y-104404761D01*
X103333333Y-104452380D01*
X103238095Y-104452380D01*
X103095238Y-104404761D01*
X103000000Y-104309523D01*
X102952380Y-104214285D01*
X102904761Y-104023809D01*
X102904761Y-103880952D01*
X102952380Y-103690476D01*
X103000000Y-103595238D01*
X103095238Y-103500000D01*
X103238095Y-103452380D01*
X103333333Y-103452380D01*
X103476190Y-103500000D01*
X103523809Y-103547619D01*
X104523809Y-104452380D02*
X104190476Y-103976190D01*
X103952380Y-104452380D02*
X103952380Y-103452380D01*
X104333333Y-103452380D01*
X104428571Y-103500000D01*
X104476190Y-103547619D01*
X104523809Y-103642857D01*
X104523809Y-103785714D01*
X104476190Y-103880952D01*
X104428571Y-103928571D01*
X104333333Y-103976190D01*
X103952380Y-103976190D01*
X104904761Y-104404761D02*
X105047619Y-104452380D01*
X105285714Y-104452380D01*
X105380952Y-104404761D01*
X105428571Y-104357142D01*
X105476190Y-104261904D01*
X105476190Y-104166666D01*
X105428571Y-104071428D01*
X105380952Y-104023809D01*
X105285714Y-103976190D01*
X105095238Y-103928571D01*
X105000000Y-103880952D01*
X104952380Y-103833333D01*
X104904761Y-103738095D01*
X104904761Y-103642857D01*
X104952380Y-103547619D01*
X105000000Y-103500000D01*
X105095238Y-103452380D01*
X105333333Y-103452380D01*
X105476190Y-103500000D01*
X107000000Y-103928571D02*
X107142857Y-103976190D01*
X107190476Y-104023809D01*
X107238095Y-104119047D01*
X107238095Y-104261904D01*
X107190476Y-104357142D01*
X107142857Y-104404761D01*
X107047619Y-104452380D01*
X106666666Y-104452380D01*
X106666666Y-103452380D01*
X107000000Y-103452380D01*
X107095238Y-103500000D01*
X107142857Y-103547619D01*
X107190476Y-103642857D01*
X107190476Y-103738095D01*
X107142857Y-103833333D01*
X107095238Y-103880952D01*
X107000000Y-103928571D01*
X106666666Y-103928571D01*
X108095238Y-103785714D02*
X108095238Y-104452380D01*
X107666666Y-103785714D02*
X107666666Y-104309523D01*
X107714285Y-104404761D01*
X107809523Y-104452380D01*
X107952380Y-104452380D01*
X108047619Y-104404761D01*
X108095238Y-104357142D01*
X108428571Y-103785714D02*
X108809523Y-103785714D01*
X108571428Y-103452380D02*
X108571428Y-104309523D01*
X108619047Y-104404761D01*
X108714285Y-104452380D01*
X108809523Y-104452380D01*
X109000000Y-103785714D02*
X109380952Y-103785714D01*
X109142857Y-103452380D02*
X109142857Y-104309523D01*
X109190476Y-104404761D01*
X109285714Y-104452380D01*
X109380952Y-104452380D01*
X109857142Y-104452380D02*
X109761904Y-104404761D01*
X109714285Y-104357142D01*
X109666666Y-104261904D01*
X109666666Y-103976190D01*
X109714285Y-103880952D01*
X109761904Y-103833333D01*
X109857142Y-103785714D01*
X110000000Y-103785714D01*
X110095238Y-103833333D01*
X110142857Y-103880952D01*
X110190476Y-103976190D01*
X110190476Y-104261904D01*
X110142857Y-104357142D01*
X110095238Y-104404761D01*
X110000000Y-104452380D01*
X109857142Y-104452380D01*
X110619047Y-103785714D02*
X110619047Y-104452380D01*
X110619047Y-103880952D02*
X110666666Y-103833333D01*
X110761904Y-103785714D01*
X110904761Y-103785714D01*
X111000000Y-103833333D01*
X111047619Y-103928571D01*
X111047619Y-104452380D01*
X164619047Y-130261904D02*
X163476190Y-130261904D01*
X164047619Y-130261904D02*
X164047619Y-125261904D01*
X163857142Y-125976190D01*
X163666666Y-126452380D01*
X163476190Y-126690476D01*
X166428571Y-125261904D02*
X165476190Y-125261904D01*
X165380952Y-127642857D01*
X165476190Y-127404761D01*
X165666666Y-127166666D01*
X166142857Y-127166666D01*
X166333333Y-127404761D01*
X166428571Y-127642857D01*
X166523809Y-128119047D01*
X166523809Y-129309523D01*
X166428571Y-129785714D01*
X166333333Y-130023809D01*
X166142857Y-130261904D01*
X165666666Y-130261904D01*
X165476190Y-130023809D01*
X165380952Y-129785714D01*
X140619047Y-129261904D02*
X139476190Y-129261904D01*
X140047619Y-129261904D02*
X140047619Y-124261904D01*
X139857142Y-124976190D01*
X139666666Y-125452380D01*
X139476190Y-125690476D01*
X142333333Y-125928571D02*
X142333333Y-129261904D01*
X141857142Y-124023809D02*
X141380952Y-127595238D01*
X142619047Y-127595238D01*
X117619047Y-129261904D02*
X116476190Y-129261904D01*
X117047619Y-129261904D02*
X117047619Y-124261904D01*
X116857142Y-124976190D01*
X116666666Y-125452380D01*
X116476190Y-125690476D01*
X118285714Y-124261904D02*
X119523809Y-124261904D01*
X118857142Y-126166666D01*
X119142857Y-126166666D01*
X119333333Y-126404761D01*
X119428571Y-126642857D01*
X119523809Y-127119047D01*
X119523809Y-128309523D01*
X119428571Y-128785714D01*
X119333333Y-129023809D01*
X119142857Y-129261904D01*
X118571428Y-129261904D01*
X118380952Y-129023809D01*
X118285714Y-128785714D01*
X94619047Y-129261904D02*
X93476190Y-129261904D01*
X94047619Y-129261904D02*
X94047619Y-124261904D01*
X93857142Y-124976190D01*
X93666666Y-125452380D01*
X93476190Y-125690476D01*
X95380952Y-124738095D02*
X95476190Y-124500000D01*
X95666666Y-124261904D01*
X96142857Y-124261904D01*
X96333333Y-124500000D01*
X96428571Y-124738095D01*
X96523809Y-125214285D01*
X96523809Y-125690476D01*
X96428571Y-126404761D01*
X95285714Y-129261904D01*
X96523809Y-129261904D01*
X72619047Y-129261904D02*
X71476190Y-129261904D01*
X72047619Y-129261904D02*
X72047619Y-124261904D01*
X71857142Y-124976190D01*
X71666666Y-125452380D01*
X71476190Y-125690476D01*
X74523809Y-129261904D02*
X73380952Y-129261904D01*
X73952380Y-129261904D02*
X73952380Y-124261904D01*
X73761904Y-124976190D01*
X73571428Y-125452380D01*
X73380952Y-125690476D01*
X171571428Y-96261904D02*
X170428571Y-96261904D01*
X171000000Y-96261904D02*
X171000000Y-91261904D01*
X170809523Y-91976190D01*
X170619047Y-92452380D01*
X170428571Y-92690476D01*
X148428571Y-91738095D02*
X148523809Y-91500000D01*
X148714285Y-91261904D01*
X149190476Y-91261904D01*
X149380952Y-91500000D01*
X149476190Y-91738095D01*
X149571428Y-92214285D01*
X149571428Y-92690476D01*
X149476190Y-93404761D01*
X148333333Y-96261904D01*
X149571428Y-96261904D01*
X125333333Y-91261904D02*
X126571428Y-91261904D01*
X125904761Y-93166666D01*
X126190476Y-93166666D01*
X126380952Y-93404761D01*
X126476190Y-93642857D01*
X126571428Y-94119047D01*
X126571428Y-95309523D01*
X126476190Y-95785714D01*
X126380952Y-96023809D01*
X126190476Y-96261904D01*
X125619047Y-96261904D01*
X125428571Y-96023809D01*
X125333333Y-95785714D01*
X102380952Y-92928571D02*
X102380952Y-96261904D01*
X101904761Y-91023809D02*
X101428571Y-94595238D01*
X102666666Y-94595238D01*
X80476190Y-91261904D02*
X79523809Y-91261904D01*
X79428571Y-93642857D01*
X79523809Y-93404761D01*
X79714285Y-93166666D01*
X80190476Y-93166666D01*
X80380952Y-93404761D01*
X80476190Y-93642857D01*
X80571428Y-94119047D01*
X80571428Y-95309523D01*
X80476190Y-95785714D01*
X80380952Y-96023809D01*
X80190476Y-96261904D01*
X79714285Y-96261904D01*
X79523809Y-96023809D01*
X79428571Y-95785714D01*
X171380952Y-77261904D02*
X171000000Y-77261904D01*
X170809523Y-77500000D01*
X170714285Y-77738095D01*
X170523809Y-78452380D01*
X170428571Y-79404761D01*
X170428571Y-81309523D01*
X170523809Y-81785714D01*
X170619047Y-82023809D01*
X170809523Y-82261904D01*
X171190476Y-82261904D01*
X171380952Y-82023809D01*
X171476190Y-81785714D01*
X171571428Y-81309523D01*
X171571428Y-80119047D01*
X171476190Y-79642857D01*
X171380952Y-79404761D01*
X171190476Y-79166666D01*
X170809523Y-79166666D01*
X170619047Y-79404761D01*
X170523809Y-79642857D01*
X170428571Y-80119047D01*
X147333333Y-77261904D02*
X148666666Y-77261904D01*
X147809523Y-82261904D01*
X125809523Y-79404761D02*
X125619047Y-79166666D01*
X125523809Y-78928571D01*
X125428571Y-78452380D01*
X125428571Y-78214285D01*
X125523809Y-77738095D01*
X125619047Y-77500000D01*
X125809523Y-77261904D01*
X126190476Y-77261904D01*
X126380952Y-77500000D01*
X126476190Y-77738095D01*
X126571428Y-78214285D01*
X126571428Y-78452380D01*
X126476190Y-78928571D01*
X126380952Y-79166666D01*
X126190476Y-79404761D01*
X125809523Y-79404761D01*
X125619047Y-79642857D01*
X125523809Y-79880952D01*
X125428571Y-80357142D01*
X125428571Y-81309523D01*
X125523809Y-81785714D01*
X125619047Y-82023809D01*
X125809523Y-82261904D01*
X126190476Y-82261904D01*
X126380952Y-82023809D01*
X126476190Y-81785714D01*
X126571428Y-81309523D01*
X126571428Y-80357142D01*
X126476190Y-79880952D01*
X126380952Y-79642857D01*
X126190476Y-79404761D01*
X102619047Y-82261904D02*
X103000000Y-82261904D01*
X103190476Y-82023809D01*
X103285714Y-81785714D01*
X103476190Y-81071428D01*
X103571428Y-80119047D01*
X103571428Y-78214285D01*
X103476190Y-77738095D01*
X103380952Y-77500000D01*
X103190476Y-77261904D01*
X102809523Y-77261904D01*
X102619047Y-77500000D01*
X102523809Y-77738095D01*
X102428571Y-78214285D01*
X102428571Y-79404761D01*
X102523809Y-79880952D01*
X102619047Y-80119047D01*
X102809523Y-80357142D01*
X103190476Y-80357142D01*
X103380952Y-80119047D01*
X103476190Y-79880952D01*
X103571428Y-79404761D01*
X79619047Y-82261904D02*
X78476190Y-82261904D01*
X79047619Y-82261904D02*
X79047619Y-77261904D01*
X78857142Y-77976190D01*
X78666666Y-78452380D01*
X78476190Y-78690476D01*
X80857142Y-77261904D02*
X81047619Y-77261904D01*
X81238095Y-77500000D01*
X81333333Y-77738095D01*
X81428571Y-78214285D01*
X81523809Y-79166666D01*
X81523809Y-80357142D01*
X81428571Y-81309523D01*
X81333333Y-81785714D01*
X81238095Y-82023809D01*
X81047619Y-82261904D01*
X80857142Y-82261904D01*
X80666666Y-82023809D01*
X80571428Y-81785714D01*
X80476190Y-81309523D01*
X80380952Y-80357142D01*
X80380952Y-79166666D01*
X80476190Y-78214285D01*
X80571428Y-77738095D01*
X80666666Y-77500000D01*
X80857142Y-77261904D01*
X160119047Y-84928571D02*
X159785714Y-84928571D01*
X159785714Y-85452380D02*
X159785714Y-84452380D01*
X160261904Y-84452380D01*
X160785714Y-85452380D02*
X160690476Y-85404761D01*
X160642857Y-85309523D01*
X160642857Y-84452380D01*
X161166666Y-85452380D02*
X161166666Y-84785714D01*
X161166666Y-84452380D02*
X161119047Y-84500000D01*
X161166666Y-84547619D01*
X161214285Y-84500000D01*
X161166666Y-84452380D01*
X161166666Y-84547619D01*
X162071428Y-84785714D02*
X162071428Y-85595238D01*
X162023809Y-85690476D01*
X161976190Y-85738095D01*
X161880952Y-85785714D01*
X161738095Y-85785714D01*
X161642857Y-85738095D01*
X162071428Y-85404761D02*
X161976190Y-85452380D01*
X161785714Y-85452380D01*
X161690476Y-85404761D01*
X161642857Y-85357142D01*
X161595238Y-85261904D01*
X161595238Y-84976190D01*
X161642857Y-84880952D01*
X161690476Y-84833333D01*
X161785714Y-84785714D01*
X161976190Y-84785714D01*
X162071428Y-84833333D01*
X162547619Y-85452380D02*
X162547619Y-84452380D01*
X162976190Y-85452380D02*
X162976190Y-84928571D01*
X162928571Y-84833333D01*
X162833333Y-84785714D01*
X162690476Y-84785714D01*
X162595238Y-84833333D01*
X162547619Y-84880952D01*
X163309523Y-84785714D02*
X163690476Y-84785714D01*
X163452380Y-84452380D02*
X163452380Y-85309523D01*
X163500000Y-85404761D01*
X163595238Y-85452380D01*
X163690476Y-85452380D01*
X164785714Y-85452380D02*
X164785714Y-84452380D01*
X165023809Y-84452380D01*
X165166666Y-84500000D01*
X165261904Y-84595238D01*
X165309523Y-84690476D01*
X165357142Y-84880952D01*
X165357142Y-85023809D01*
X165309523Y-85214285D01*
X165261904Y-85309523D01*
X165166666Y-85404761D01*
X165023809Y-85452380D01*
X164785714Y-85452380D01*
X165785714Y-85452380D02*
X165785714Y-84785714D01*
X165785714Y-84452380D02*
X165738095Y-84500000D01*
X165785714Y-84547619D01*
X165833333Y-84500000D01*
X165785714Y-84452380D01*
X165785714Y-84547619D01*
X166261904Y-85452380D02*
X166261904Y-84785714D01*
X166261904Y-84976190D02*
X166309523Y-84880952D01*
X166357142Y-84833333D01*
X166452380Y-84785714D01*
X166547619Y-84785714D01*
X167261904Y-85404761D02*
X167166666Y-85452380D01*
X166976190Y-85452380D01*
X166880952Y-85404761D01*
X166833333Y-85309523D01*
X166833333Y-84928571D01*
X166880952Y-84833333D01*
X166976190Y-84785714D01*
X167166666Y-84785714D01*
X167261904Y-84833333D01*
X167309523Y-84928571D01*
X167309523Y-85023809D01*
X166833333Y-85119047D01*
X168166666Y-85404761D02*
X168071428Y-85452380D01*
X167880952Y-85452380D01*
X167785714Y-85404761D01*
X167738095Y-85357142D01*
X167690476Y-85261904D01*
X167690476Y-84976190D01*
X167738095Y-84880952D01*
X167785714Y-84833333D01*
X167880952Y-84785714D01*
X168071428Y-84785714D01*
X168166666Y-84833333D01*
X168452380Y-84785714D02*
X168833333Y-84785714D01*
X168595238Y-84452380D02*
X168595238Y-85309523D01*
X168642857Y-85404761D01*
X168738095Y-85452380D01*
X168833333Y-85452380D01*
X169309523Y-85452380D02*
X169214285Y-85404761D01*
X169166666Y-85357142D01*
X169119047Y-85261904D01*
X169119047Y-84976190D01*
X169166666Y-84880952D01*
X169214285Y-84833333D01*
X169309523Y-84785714D01*
X169452380Y-84785714D01*
X169547619Y-84833333D01*
X169595238Y-84880952D01*
X169642857Y-84976190D01*
X169642857Y-85261904D01*
X169595238Y-85357142D01*
X169547619Y-85404761D01*
X169452380Y-85452380D01*
X169309523Y-85452380D01*
X170071428Y-85452380D02*
X170071428Y-84785714D01*
X170071428Y-84976190D02*
X170119047Y-84880952D01*
X170166666Y-84833333D01*
X170261904Y-84785714D01*
X170357142Y-84785714D01*
X137833333Y-84976190D02*
X137833333Y-85452380D01*
X137500000Y-84452380D02*
X137833333Y-84976190D01*
X138166666Y-84452380D01*
X138928571Y-85452380D02*
X138928571Y-84928571D01*
X138880952Y-84833333D01*
X138785714Y-84785714D01*
X138595238Y-84785714D01*
X138500000Y-84833333D01*
X138928571Y-85404761D02*
X138833333Y-85452380D01*
X138595238Y-85452380D01*
X138500000Y-85404761D01*
X138452380Y-85309523D01*
X138452380Y-85214285D01*
X138500000Y-85119047D01*
X138595238Y-85071428D01*
X138833333Y-85071428D01*
X138928571Y-85023809D01*
X139309523Y-84785714D02*
X139500000Y-85452380D01*
X139690476Y-84976190D01*
X139880952Y-85452380D01*
X140071428Y-84785714D01*
X141214285Y-85452380D02*
X141214285Y-84452380D01*
X141452380Y-84452380D01*
X141595238Y-84500000D01*
X141690476Y-84595238D01*
X141738095Y-84690476D01*
X141785714Y-84880952D01*
X141785714Y-85023809D01*
X141738095Y-85214285D01*
X141690476Y-85309523D01*
X141595238Y-85404761D01*
X141452380Y-85452380D01*
X141214285Y-85452380D01*
X142642857Y-85452380D02*
X142642857Y-84928571D01*
X142595238Y-84833333D01*
X142500000Y-84785714D01*
X142309523Y-84785714D01*
X142214285Y-84833333D01*
X142642857Y-85404761D02*
X142547619Y-85452380D01*
X142309523Y-85452380D01*
X142214285Y-85404761D01*
X142166666Y-85309523D01*
X142166666Y-85214285D01*
X142214285Y-85119047D01*
X142309523Y-85071428D01*
X142547619Y-85071428D01*
X142642857Y-85023809D01*
X143119047Y-85452380D02*
X143119047Y-84785714D01*
X143119047Y-84880952D02*
X143166666Y-84833333D01*
X143261904Y-84785714D01*
X143404761Y-84785714D01*
X143500000Y-84833333D01*
X143547619Y-84928571D01*
X143547619Y-85452380D01*
X143547619Y-84928571D02*
X143595238Y-84833333D01*
X143690476Y-84785714D01*
X143833333Y-84785714D01*
X143928571Y-84833333D01*
X143976190Y-84928571D01*
X143976190Y-85452380D01*
X144452380Y-84785714D02*
X144452380Y-85785714D01*
X144452380Y-84833333D02*
X144547619Y-84785714D01*
X144738095Y-84785714D01*
X144833333Y-84833333D01*
X144880952Y-84880952D01*
X144928571Y-84976190D01*
X144928571Y-85261904D01*
X144880952Y-85357142D01*
X144833333Y-85404761D01*
X144738095Y-85452380D01*
X144547619Y-85452380D01*
X144452380Y-85404761D01*
X145738095Y-85404761D02*
X145642857Y-85452380D01*
X145452380Y-85452380D01*
X145357142Y-85404761D01*
X145309523Y-85309523D01*
X145309523Y-84928571D01*
X145357142Y-84833333D01*
X145452380Y-84785714D01*
X145642857Y-84785714D01*
X145738095Y-84833333D01*
X145785714Y-84928571D01*
X145785714Y-85023809D01*
X145309523Y-85119047D01*
X146214285Y-85452380D02*
X146214285Y-84785714D01*
X146214285Y-84976190D02*
X146261904Y-84880952D01*
X146309523Y-84833333D01*
X146404761Y-84785714D01*
X146500000Y-84785714D01*
X92595238Y-85452380D02*
X92595238Y-84452380D01*
X93166666Y-85452380D01*
X93166666Y-84452380D01*
X94071428Y-85452380D02*
X94071428Y-84928571D01*
X94023809Y-84833333D01*
X93928571Y-84785714D01*
X93738095Y-84785714D01*
X93642857Y-84833333D01*
X94071428Y-85404761D02*
X93976190Y-85452380D01*
X93738095Y-85452380D01*
X93642857Y-85404761D01*
X93595238Y-85309523D01*
X93595238Y-85214285D01*
X93642857Y-85119047D01*
X93738095Y-85071428D01*
X93976190Y-85071428D01*
X94071428Y-85023809D01*
X94452380Y-84785714D02*
X94690476Y-85452380D01*
X94928571Y-84785714D01*
X96071428Y-85452380D02*
X96071428Y-84452380D01*
X96404761Y-85166666D01*
X96738095Y-84452380D01*
X96738095Y-85452380D01*
X97357142Y-85452380D02*
X97261904Y-85404761D01*
X97214285Y-85357142D01*
X97166666Y-85261904D01*
X97166666Y-84976190D01*
X97214285Y-84880952D01*
X97261904Y-84833333D01*
X97357142Y-84785714D01*
X97500000Y-84785714D01*
X97595238Y-84833333D01*
X97642857Y-84880952D01*
X97690476Y-84976190D01*
X97690476Y-85261904D01*
X97642857Y-85357142D01*
X97595238Y-85404761D01*
X97500000Y-85452380D01*
X97357142Y-85452380D01*
X98547619Y-85452380D02*
X98547619Y-84452380D01*
X98547619Y-85404761D02*
X98452380Y-85452380D01*
X98261904Y-85452380D01*
X98166666Y-85404761D01*
X98119047Y-85357142D01*
X98071428Y-85261904D01*
X98071428Y-84976190D01*
X98119047Y-84880952D01*
X98166666Y-84833333D01*
X98261904Y-84785714D01*
X98452380Y-84785714D01*
X98547619Y-84833333D01*
X99404761Y-85404761D02*
X99309523Y-85452380D01*
X99119047Y-85452380D01*
X99023809Y-85404761D01*
X98976190Y-85309523D01*
X98976190Y-84928571D01*
X99023809Y-84833333D01*
X99119047Y-84785714D01*
X99309523Y-84785714D01*
X99404761Y-84833333D01*
X99452380Y-84928571D01*
X99452380Y-85023809D01*
X98976190Y-85119047D01*
X69880952Y-85166666D02*
X70357142Y-85166666D01*
X69785714Y-85452380D02*
X70119047Y-84452380D01*
X70452380Y-85452380D01*
X71214285Y-84785714D02*
X71214285Y-85452380D01*
X70785714Y-84785714D02*
X70785714Y-85309523D01*
X70833333Y-85404761D01*
X70928571Y-85452380D01*
X71071428Y-85452380D01*
X71166666Y-85404761D01*
X71214285Y-85357142D01*
X71547619Y-84785714D02*
X71928571Y-84785714D01*
X71690476Y-84452380D02*
X71690476Y-85309523D01*
X71738095Y-85404761D01*
X71833333Y-85452380D01*
X71928571Y-85452380D01*
X72404761Y-85452380D02*
X72309523Y-85404761D01*
X72261904Y-85357142D01*
X72214285Y-85261904D01*
X72214285Y-84976190D01*
X72261904Y-84880952D01*
X72309523Y-84833333D01*
X72404761Y-84785714D01*
X72547619Y-84785714D01*
X72642857Y-84833333D01*
X72690476Y-84880952D01*
X72738095Y-84976190D01*
X72738095Y-85261904D01*
X72690476Y-85357142D01*
X72642857Y-85404761D01*
X72547619Y-85452380D01*
X72404761Y-85452380D01*
X73166666Y-84785714D02*
X73166666Y-85785714D01*
X73166666Y-84833333D02*
X73261904Y-84785714D01*
X73452380Y-84785714D01*
X73547619Y-84833333D01*
X73595238Y-84880952D01*
X73642857Y-84976190D01*
X73642857Y-85261904D01*
X73595238Y-85357142D01*
X73547619Y-85404761D01*
X73452380Y-85452380D01*
X73261904Y-85452380D01*
X73166666Y-85404761D01*
X74071428Y-85452380D02*
X74071428Y-84785714D01*
X74071428Y-84452380D02*
X74023809Y-84500000D01*
X74071428Y-84547619D01*
X74119047Y-84500000D01*
X74071428Y-84452380D01*
X74071428Y-84547619D01*
X74690476Y-85452380D02*
X74595238Y-85404761D01*
X74547619Y-85309523D01*
X74547619Y-84452380D01*
X75214285Y-85452380D02*
X75119047Y-85404761D01*
X75071428Y-85357142D01*
X75023809Y-85261904D01*
X75023809Y-84976190D01*
X75071428Y-84880952D01*
X75119047Y-84833333D01*
X75214285Y-84785714D01*
X75357142Y-84785714D01*
X75452380Y-84833333D01*
X75500000Y-84880952D01*
X75547619Y-84976190D01*
X75547619Y-85261904D01*
X75500000Y-85357142D01*
X75452380Y-85404761D01*
X75357142Y-85452380D01*
X75214285Y-85452380D01*
X75833333Y-84785714D02*
X76214285Y-84785714D01*
X75976190Y-84452380D02*
X75976190Y-85309523D01*
X76023809Y-85404761D01*
X76119047Y-85452380D01*
X76214285Y-85452380D01*
X115880952Y-85452380D02*
X115880952Y-84452380D01*
X116452380Y-85452380D01*
X116452380Y-84452380D01*
X117357142Y-85452380D02*
X117357142Y-84928571D01*
X117309523Y-84833333D01*
X117214285Y-84785714D01*
X117023809Y-84785714D01*
X116928571Y-84833333D01*
X117357142Y-85404761D02*
X117261904Y-85452380D01*
X117023809Y-85452380D01*
X116928571Y-85404761D01*
X116880952Y-85309523D01*
X116880952Y-85214285D01*
X116928571Y-85119047D01*
X117023809Y-85071428D01*
X117261904Y-85071428D01*
X117357142Y-85023809D01*
X117738095Y-84785714D02*
X117976190Y-85452380D01*
X118214285Y-84785714D01*
X119309523Y-84404761D02*
X118452380Y-85690476D01*
X120166666Y-84500000D02*
X120071428Y-84452380D01*
X119928571Y-84452380D01*
X119785714Y-84500000D01*
X119690476Y-84595238D01*
X119642857Y-84690476D01*
X119595238Y-84880952D01*
X119595238Y-85023809D01*
X119642857Y-85214285D01*
X119690476Y-85309523D01*
X119785714Y-85404761D01*
X119928571Y-85452380D01*
X120023809Y-85452380D01*
X120166666Y-85404761D01*
X120214285Y-85357142D01*
X120214285Y-85023809D01*
X120023809Y-85023809D01*
X120642857Y-85452380D02*
X120642857Y-84452380D01*
X121023809Y-84452380D01*
X121119047Y-84500000D01*
X121166666Y-84547619D01*
X121214285Y-84642857D01*
X121214285Y-84785714D01*
X121166666Y-84880952D01*
X121119047Y-84928571D01*
X121023809Y-84976190D01*
X120642857Y-84976190D01*
X121595238Y-85404761D02*
X121738095Y-85452380D01*
X121976190Y-85452380D01*
X122071428Y-85404761D01*
X122119047Y-85357142D01*
X122166666Y-85261904D01*
X122166666Y-85166666D01*
X122119047Y-85071428D01*
X122071428Y-85023809D01*
X121976190Y-84976190D01*
X121785714Y-84928571D01*
X121690476Y-84880952D01*
X121642857Y-84833333D01*
X121595238Y-84738095D01*
X121595238Y-84642857D01*
X121642857Y-84547619D01*
X121690476Y-84500000D01*
X121785714Y-84452380D01*
X122023809Y-84452380D01*
X122166666Y-84500000D01*
X115880952Y-87166666D02*
X116357142Y-87166666D01*
X115785714Y-87452380D02*
X116119047Y-86452380D01*
X116452380Y-87452380D01*
X117214285Y-86785714D02*
X117214285Y-87452380D01*
X116785714Y-86785714D02*
X116785714Y-87309523D01*
X116833333Y-87404761D01*
X116928571Y-87452380D01*
X117071428Y-87452380D01*
X117166666Y-87404761D01*
X117214285Y-87357142D01*
X117547619Y-86785714D02*
X117928571Y-86785714D01*
X117690476Y-86452380D02*
X117690476Y-87309523D01*
X117738095Y-87404761D01*
X117833333Y-87452380D01*
X117928571Y-87452380D01*
X118404761Y-87452380D02*
X118309523Y-87404761D01*
X118261904Y-87357142D01*
X118214285Y-87261904D01*
X118214285Y-86976190D01*
X118261904Y-86880952D01*
X118309523Y-86833333D01*
X118404761Y-86785714D01*
X118547619Y-86785714D01*
X118642857Y-86833333D01*
X118690476Y-86880952D01*
X118738095Y-86976190D01*
X118738095Y-87261904D01*
X118690476Y-87357142D01*
X118642857Y-87404761D01*
X118547619Y-87452380D01*
X118404761Y-87452380D01*
X119166666Y-86785714D02*
X119166666Y-87785714D01*
X119166666Y-86833333D02*
X119261904Y-86785714D01*
X119452380Y-86785714D01*
X119547619Y-86833333D01*
X119595238Y-86880952D01*
X119642857Y-86976190D01*
X119642857Y-87261904D01*
X119595238Y-87357142D01*
X119547619Y-87404761D01*
X119452380Y-87452380D01*
X119261904Y-87452380D01*
X119166666Y-87404761D01*
X120071428Y-87452380D02*
X120071428Y-86785714D01*
X120071428Y-86452380D02*
X120023809Y-86500000D01*
X120071428Y-86547619D01*
X120119047Y-86500000D01*
X120071428Y-86452380D01*
X120071428Y-86547619D01*
X120690476Y-87452380D02*
X120595238Y-87404761D01*
X120547619Y-87309523D01*
X120547619Y-86452380D01*
X121214285Y-87452380D02*
X121119047Y-87404761D01*
X121071428Y-87357142D01*
X121023809Y-87261904D01*
X121023809Y-86976190D01*
X121071428Y-86880952D01*
X121119047Y-86833333D01*
X121214285Y-86785714D01*
X121357142Y-86785714D01*
X121452380Y-86833333D01*
X121500000Y-86880952D01*
X121547619Y-86976190D01*
X121547619Y-87261904D01*
X121500000Y-87357142D01*
X121452380Y-87404761D01*
X121357142Y-87452380D01*
X121214285Y-87452380D01*
X121833333Y-86785714D02*
X122214285Y-86785714D01*
X121976190Y-86452380D02*
X121976190Y-87309523D01*
X122023809Y-87404761D01*
X122119047Y-87452380D01*
X122214285Y-87452380D01*
X159285714Y-87166666D02*
X159761904Y-87166666D01*
X159190476Y-87452380D02*
X159523809Y-86452380D01*
X159857142Y-87452380D01*
X160333333Y-87452380D02*
X160238095Y-87404761D01*
X160190476Y-87309523D01*
X160190476Y-86452380D01*
X160571428Y-86785714D02*
X160952380Y-86785714D01*
X160714285Y-86452380D02*
X160714285Y-87309523D01*
X160761904Y-87404761D01*
X160857142Y-87452380D01*
X160952380Y-87452380D01*
X161285714Y-87452380D02*
X161285714Y-86785714D01*
X161285714Y-86452380D02*
X161238095Y-86500000D01*
X161285714Y-86547619D01*
X161333333Y-86500000D01*
X161285714Y-86452380D01*
X161285714Y-86547619D01*
X161619047Y-86785714D02*
X162000000Y-86785714D01*
X161761904Y-86452380D02*
X161761904Y-87309523D01*
X161809523Y-87404761D01*
X161904761Y-87452380D01*
X162000000Y-87452380D01*
X162761904Y-86785714D02*
X162761904Y-87452380D01*
X162333333Y-86785714D02*
X162333333Y-87309523D01*
X162380952Y-87404761D01*
X162476190Y-87452380D01*
X162619047Y-87452380D01*
X162714285Y-87404761D01*
X162761904Y-87357142D01*
X163666666Y-87452380D02*
X163666666Y-86452380D01*
X163666666Y-87404761D02*
X163571428Y-87452380D01*
X163380952Y-87452380D01*
X163285714Y-87404761D01*
X163238095Y-87357142D01*
X163190476Y-87261904D01*
X163190476Y-86976190D01*
X163238095Y-86880952D01*
X163285714Y-86833333D01*
X163380952Y-86785714D01*
X163571428Y-86785714D01*
X163666666Y-86833333D01*
X164523809Y-87404761D02*
X164428571Y-87452380D01*
X164238095Y-87452380D01*
X164142857Y-87404761D01*
X164095238Y-87309523D01*
X164095238Y-86928571D01*
X164142857Y-86833333D01*
X164238095Y-86785714D01*
X164428571Y-86785714D01*
X164523809Y-86833333D01*
X164571428Y-86928571D01*
X164571428Y-87023809D01*
X164095238Y-87119047D01*
X165761904Y-87452380D02*
X165761904Y-86452380D01*
X165761904Y-86928571D02*
X166333333Y-86928571D01*
X166333333Y-87452380D02*
X166333333Y-86452380D01*
X166952380Y-87452380D02*
X166857142Y-87404761D01*
X166809523Y-87357142D01*
X166761904Y-87261904D01*
X166761904Y-86976190D01*
X166809523Y-86880952D01*
X166857142Y-86833333D01*
X166952380Y-86785714D01*
X167095238Y-86785714D01*
X167190476Y-86833333D01*
X167238095Y-86880952D01*
X167285714Y-86976190D01*
X167285714Y-87261904D01*
X167238095Y-87357142D01*
X167190476Y-87404761D01*
X167095238Y-87452380D01*
X166952380Y-87452380D01*
X167857142Y-87452380D02*
X167761904Y-87404761D01*
X167714285Y-87309523D01*
X167714285Y-86452380D01*
X168666666Y-87452380D02*
X168666666Y-86452380D01*
X168666666Y-87404761D02*
X168571428Y-87452380D01*
X168380952Y-87452380D01*
X168285714Y-87404761D01*
X168238095Y-87357142D01*
X168190476Y-87261904D01*
X168190476Y-86976190D01*
X168238095Y-86880952D01*
X168285714Y-86833333D01*
X168380952Y-86785714D01*
X168571428Y-86785714D01*
X168666666Y-86833333D01*
X135738095Y-86452380D02*
X136071428Y-87452380D01*
X136404761Y-86452380D01*
X136738095Y-87357142D02*
X136785714Y-87404761D01*
X136738095Y-87452380D01*
X136690476Y-87404761D01*
X136738095Y-87357142D01*
X136738095Y-87452380D01*
X137928571Y-87404761D02*
X138071428Y-87452380D01*
X138309523Y-87452380D01*
X138404761Y-87404761D01*
X138452380Y-87357142D01*
X138500000Y-87261904D01*
X138500000Y-87166666D01*
X138452380Y-87071428D01*
X138404761Y-87023809D01*
X138309523Y-86976190D01*
X138119047Y-86928571D01*
X138023809Y-86880952D01*
X137976190Y-86833333D01*
X137928571Y-86738095D01*
X137928571Y-86642857D01*
X137976190Y-86547619D01*
X138023809Y-86500000D01*
X138119047Y-86452380D01*
X138357142Y-86452380D01*
X138500000Y-86500000D01*
X138928571Y-86785714D02*
X138928571Y-87785714D01*
X138928571Y-86833333D02*
X139023809Y-86785714D01*
X139214285Y-86785714D01*
X139309523Y-86833333D01*
X139357142Y-86880952D01*
X139404761Y-86976190D01*
X139404761Y-87261904D01*
X139357142Y-87357142D01*
X139309523Y-87404761D01*
X139214285Y-87452380D01*
X139023809Y-87452380D01*
X138928571Y-87404761D01*
X140214285Y-87404761D02*
X140119047Y-87452380D01*
X139928571Y-87452380D01*
X139833333Y-87404761D01*
X139785714Y-87309523D01*
X139785714Y-86928571D01*
X139833333Y-86833333D01*
X139928571Y-86785714D01*
X140119047Y-86785714D01*
X140214285Y-86833333D01*
X140261904Y-86928571D01*
X140261904Y-87023809D01*
X139785714Y-87119047D01*
X141071428Y-87404761D02*
X140976190Y-87452380D01*
X140785714Y-87452380D01*
X140690476Y-87404761D01*
X140642857Y-87309523D01*
X140642857Y-86928571D01*
X140690476Y-86833333D01*
X140785714Y-86785714D01*
X140976190Y-86785714D01*
X141071428Y-86833333D01*
X141119047Y-86928571D01*
X141119047Y-87023809D01*
X140642857Y-87119047D01*
X141976190Y-87452380D02*
X141976190Y-86452380D01*
X141976190Y-87404761D02*
X141880952Y-87452380D01*
X141690476Y-87452380D01*
X141595238Y-87404761D01*
X141547619Y-87357142D01*
X141500000Y-87261904D01*
X141500000Y-86976190D01*
X141547619Y-86880952D01*
X141595238Y-86833333D01*
X141690476Y-86785714D01*
X141880952Y-86785714D01*
X141976190Y-86833333D01*
X143214285Y-87452380D02*
X143214285Y-86452380D01*
X143214285Y-86928571D02*
X143785714Y-86928571D01*
X143785714Y-87452380D02*
X143785714Y-86452380D01*
X144404761Y-87452380D02*
X144309523Y-87404761D01*
X144261904Y-87357142D01*
X144214285Y-87261904D01*
X144214285Y-86976190D01*
X144261904Y-86880952D01*
X144309523Y-86833333D01*
X144404761Y-86785714D01*
X144547619Y-86785714D01*
X144642857Y-86833333D01*
X144690476Y-86880952D01*
X144738095Y-86976190D01*
X144738095Y-87261904D01*
X144690476Y-87357142D01*
X144642857Y-87404761D01*
X144547619Y-87452380D01*
X144404761Y-87452380D01*
X145309523Y-87452380D02*
X145214285Y-87404761D01*
X145166666Y-87309523D01*
X145166666Y-86452380D01*
X146119047Y-87452380D02*
X146119047Y-86452380D01*
X146119047Y-87404761D02*
X146023809Y-87452380D01*
X145833333Y-87452380D01*
X145738095Y-87404761D01*
X145690476Y-87357142D01*
X145642857Y-87261904D01*
X145642857Y-86976190D01*
X145690476Y-86880952D01*
X145738095Y-86833333D01*
X145833333Y-86785714D01*
X146023809Y-86785714D01*
X146119047Y-86833333D01*
X91880952Y-87404761D02*
X92023809Y-87452380D01*
X92261904Y-87452380D01*
X92357142Y-87404761D01*
X92404761Y-87357142D01*
X92452380Y-87261904D01*
X92452380Y-87166666D01*
X92404761Y-87071428D01*
X92357142Y-87023809D01*
X92261904Y-86976190D01*
X92071428Y-86928571D01*
X91976190Y-86880952D01*
X91928571Y-86833333D01*
X91880952Y-86738095D01*
X91880952Y-86642857D01*
X91928571Y-86547619D01*
X91976190Y-86500000D01*
X92071428Y-86452380D01*
X92309523Y-86452380D01*
X92452380Y-86500000D01*
X92880952Y-86785714D02*
X92880952Y-87785714D01*
X92880952Y-86833333D02*
X92976190Y-86785714D01*
X93166666Y-86785714D01*
X93261904Y-86833333D01*
X93309523Y-86880952D01*
X93357142Y-86976190D01*
X93357142Y-87261904D01*
X93309523Y-87357142D01*
X93261904Y-87404761D01*
X93166666Y-87452380D01*
X92976190Y-87452380D01*
X92880952Y-87404761D01*
X94166666Y-87404761D02*
X94071428Y-87452380D01*
X93880952Y-87452380D01*
X93785714Y-87404761D01*
X93738095Y-87309523D01*
X93738095Y-86928571D01*
X93785714Y-86833333D01*
X93880952Y-86785714D01*
X94071428Y-86785714D01*
X94166666Y-86833333D01*
X94214285Y-86928571D01*
X94214285Y-87023809D01*
X93738095Y-87119047D01*
X95023809Y-87404761D02*
X94928571Y-87452380D01*
X94738095Y-87452380D01*
X94642857Y-87404761D01*
X94595238Y-87309523D01*
X94595238Y-86928571D01*
X94642857Y-86833333D01*
X94738095Y-86785714D01*
X94928571Y-86785714D01*
X95023809Y-86833333D01*
X95071428Y-86928571D01*
X95071428Y-87023809D01*
X94595238Y-87119047D01*
X95928571Y-87452380D02*
X95928571Y-86452380D01*
X95928571Y-87404761D02*
X95833333Y-87452380D01*
X95642857Y-87452380D01*
X95547619Y-87404761D01*
X95500000Y-87357142D01*
X95452380Y-87261904D01*
X95452380Y-86976190D01*
X95500000Y-86880952D01*
X95547619Y-86833333D01*
X95642857Y-86785714D01*
X95833333Y-86785714D01*
X95928571Y-86833333D01*
X97166666Y-87452380D02*
X97166666Y-86452380D01*
X97166666Y-86928571D02*
X97738095Y-86928571D01*
X97738095Y-87452380D02*
X97738095Y-86452380D01*
X98357142Y-87452380D02*
X98261904Y-87404761D01*
X98214285Y-87357142D01*
X98166666Y-87261904D01*
X98166666Y-86976190D01*
X98214285Y-86880952D01*
X98261904Y-86833333D01*
X98357142Y-86785714D01*
X98500000Y-86785714D01*
X98595238Y-86833333D01*
X98642857Y-86880952D01*
X98690476Y-86976190D01*
X98690476Y-87261904D01*
X98642857Y-87357142D01*
X98595238Y-87404761D01*
X98500000Y-87452380D01*
X98357142Y-87452380D01*
X99261904Y-87452380D02*
X99166666Y-87404761D01*
X99119047Y-87309523D01*
X99119047Y-86452380D01*
X100071428Y-87452380D02*
X100071428Y-86452380D01*
X100071428Y-87404761D02*
X99976190Y-87452380D01*
X99785714Y-87452380D01*
X99690476Y-87404761D01*
X99642857Y-87357142D01*
X99595238Y-87261904D01*
X99595238Y-86976190D01*
X99642857Y-86880952D01*
X99690476Y-86833333D01*
X99785714Y-86785714D01*
X99976190Y-86785714D01*
X100071428Y-86833333D01*
X68166666Y-87452380D02*
X68166666Y-86452380D01*
X68166666Y-86928571D02*
X68738095Y-86928571D01*
X68738095Y-87452380D02*
X68738095Y-86452380D01*
X69595238Y-87404761D02*
X69500000Y-87452380D01*
X69309523Y-87452380D01*
X69214285Y-87404761D01*
X69166666Y-87309523D01*
X69166666Y-86928571D01*
X69214285Y-86833333D01*
X69309523Y-86785714D01*
X69500000Y-86785714D01*
X69595238Y-86833333D01*
X69642857Y-86928571D01*
X69642857Y-87023809D01*
X69166666Y-87119047D01*
X70500000Y-87452380D02*
X70500000Y-86928571D01*
X70452380Y-86833333D01*
X70357142Y-86785714D01*
X70166666Y-86785714D01*
X70071428Y-86833333D01*
X70500000Y-87404761D02*
X70404761Y-87452380D01*
X70166666Y-87452380D01*
X70071428Y-87404761D01*
X70023809Y-87309523D01*
X70023809Y-87214285D01*
X70071428Y-87119047D01*
X70166666Y-87071428D01*
X70404761Y-87071428D01*
X70500000Y-87023809D01*
X71404761Y-87452380D02*
X71404761Y-86452380D01*
X71404761Y-87404761D02*
X71309523Y-87452380D01*
X71119047Y-87452380D01*
X71023809Y-87404761D01*
X70976190Y-87357142D01*
X70928571Y-87261904D01*
X70928571Y-86976190D01*
X70976190Y-86880952D01*
X71023809Y-86833333D01*
X71119047Y-86785714D01*
X71309523Y-86785714D01*
X71404761Y-86833333D01*
X71880952Y-87452380D02*
X71880952Y-86785714D01*
X71880952Y-86452380D02*
X71833333Y-86500000D01*
X71880952Y-86547619D01*
X71928571Y-86500000D01*
X71880952Y-86452380D01*
X71880952Y-86547619D01*
X72357142Y-86785714D02*
X72357142Y-87452380D01*
X72357142Y-86880952D02*
X72404761Y-86833333D01*
X72500000Y-86785714D01*
X72642857Y-86785714D01*
X72738095Y-86833333D01*
X72785714Y-86928571D01*
X72785714Y-87452380D01*
X73690476Y-86785714D02*
X73690476Y-87595238D01*
X73642857Y-87690476D01*
X73595238Y-87738095D01*
X73500000Y-87785714D01*
X73357142Y-87785714D01*
X73261904Y-87738095D01*
X73690476Y-87404761D02*
X73595238Y-87452380D01*
X73404761Y-87452380D01*
X73309523Y-87404761D01*
X73261904Y-87357142D01*
X73214285Y-87261904D01*
X73214285Y-86976190D01*
X73261904Y-86880952D01*
X73309523Y-86833333D01*
X73404761Y-86785714D01*
X73595238Y-86785714D01*
X73690476Y-86833333D01*
X74928571Y-87452380D02*
X74928571Y-86452380D01*
X74928571Y-86928571D02*
X75500000Y-86928571D01*
X75500000Y-87452380D02*
X75500000Y-86452380D01*
X76119047Y-87452380D02*
X76023809Y-87404761D01*
X75976190Y-87357142D01*
X75928571Y-87261904D01*
X75928571Y-86976190D01*
X75976190Y-86880952D01*
X76023809Y-86833333D01*
X76119047Y-86785714D01*
X76261904Y-86785714D01*
X76357142Y-86833333D01*
X76404761Y-86880952D01*
X76452380Y-86976190D01*
X76452380Y-87261904D01*
X76404761Y-87357142D01*
X76357142Y-87404761D01*
X76261904Y-87452380D01*
X76119047Y-87452380D01*
X77023809Y-87452380D02*
X76928571Y-87404761D01*
X76880952Y-87309523D01*
X76880952Y-86452380D01*
X77833333Y-87452380D02*
X77833333Y-86452380D01*
X77833333Y-87404761D02*
X77738095Y-87452380D01*
X77547619Y-87452380D01*
X77452380Y-87404761D01*
X77404761Y-87357142D01*
X77357142Y-87261904D01*
X77357142Y-86976190D01*
X77404761Y-86880952D01*
X77452380Y-86833333D01*
X77547619Y-86785714D01*
X77738095Y-86785714D01*
X77833333Y-86833333D01*
X161357142Y-108166666D02*
X161833333Y-108166666D01*
X161261904Y-108452380D02*
X161595238Y-107452380D01*
X161928571Y-108452380D01*
X162404761Y-108452380D02*
X162309523Y-108404761D01*
X162261904Y-108309523D01*
X162261904Y-107452380D01*
X162642857Y-107785714D02*
X163023809Y-107785714D01*
X162785714Y-107452380D02*
X162785714Y-108309523D01*
X162833333Y-108404761D01*
X162928571Y-108452380D01*
X163023809Y-108452380D01*
X163357142Y-108452380D02*
X163357142Y-107785714D01*
X163357142Y-107452380D02*
X163309523Y-107500000D01*
X163357142Y-107547619D01*
X163404761Y-107500000D01*
X163357142Y-107452380D01*
X163357142Y-107547619D01*
X163690476Y-107785714D02*
X164071428Y-107785714D01*
X163833333Y-107452380D02*
X163833333Y-108309523D01*
X163880952Y-108404761D01*
X163976190Y-108452380D01*
X164071428Y-108452380D01*
X164833333Y-107785714D02*
X164833333Y-108452380D01*
X164404761Y-107785714D02*
X164404761Y-108309523D01*
X164452380Y-108404761D01*
X164547619Y-108452380D01*
X164690476Y-108452380D01*
X164785714Y-108404761D01*
X164833333Y-108357142D01*
X165738095Y-108452380D02*
X165738095Y-107452380D01*
X165738095Y-108404761D02*
X165642857Y-108452380D01*
X165452380Y-108452380D01*
X165357142Y-108404761D01*
X165309523Y-108357142D01*
X165261904Y-108261904D01*
X165261904Y-107976190D01*
X165309523Y-107880952D01*
X165357142Y-107833333D01*
X165452380Y-107785714D01*
X165642857Y-107785714D01*
X165738095Y-107833333D01*
X166595238Y-108404761D02*
X166500000Y-108452380D01*
X166309523Y-108452380D01*
X166214285Y-108404761D01*
X166166666Y-108309523D01*
X166166666Y-107928571D01*
X166214285Y-107833333D01*
X166309523Y-107785714D01*
X166500000Y-107785714D01*
X166595238Y-107833333D01*
X166642857Y-107928571D01*
X166642857Y-108023809D01*
X166166666Y-108119047D01*
X135642857Y-107452380D02*
X135976190Y-108452380D01*
X136309523Y-107452380D01*
X137023809Y-108404761D02*
X136928571Y-108452380D01*
X136738095Y-108452380D01*
X136642857Y-108404761D01*
X136595238Y-108309523D01*
X136595238Y-107928571D01*
X136642857Y-107833333D01*
X136738095Y-107785714D01*
X136928571Y-107785714D01*
X137023809Y-107833333D01*
X137071428Y-107928571D01*
X137071428Y-108023809D01*
X136595238Y-108119047D01*
X137500000Y-108452380D02*
X137500000Y-107785714D01*
X137500000Y-107976190D02*
X137547619Y-107880952D01*
X137595238Y-107833333D01*
X137690476Y-107785714D01*
X137785714Y-107785714D01*
X137976190Y-107785714D02*
X138357142Y-107785714D01*
X138119047Y-107452380D02*
X138119047Y-108309523D01*
X138166666Y-108404761D01*
X138261904Y-108452380D01*
X138357142Y-108452380D01*
X138690476Y-108452380D02*
X138690476Y-107785714D01*
X138690476Y-107452380D02*
X138642857Y-107500000D01*
X138690476Y-107547619D01*
X138738095Y-107500000D01*
X138690476Y-107452380D01*
X138690476Y-107547619D01*
X139595238Y-108404761D02*
X139500000Y-108452380D01*
X139309523Y-108452380D01*
X139214285Y-108404761D01*
X139166666Y-108357142D01*
X139119047Y-108261904D01*
X139119047Y-107976190D01*
X139166666Y-107880952D01*
X139214285Y-107833333D01*
X139309523Y-107785714D01*
X139500000Y-107785714D01*
X139595238Y-107833333D01*
X140452380Y-108452380D02*
X140452380Y-107928571D01*
X140404761Y-107833333D01*
X140309523Y-107785714D01*
X140119047Y-107785714D01*
X140023809Y-107833333D01*
X140452380Y-108404761D02*
X140357142Y-108452380D01*
X140119047Y-108452380D01*
X140023809Y-108404761D01*
X139976190Y-108309523D01*
X139976190Y-108214285D01*
X140023809Y-108119047D01*
X140119047Y-108071428D01*
X140357142Y-108071428D01*
X140452380Y-108023809D01*
X141071428Y-108452380D02*
X140976190Y-108404761D01*
X140928571Y-108309523D01*
X140928571Y-107452380D01*
X142166666Y-108404761D02*
X142309523Y-108452380D01*
X142547619Y-108452380D01*
X142642857Y-108404761D01*
X142690476Y-108357142D01*
X142738095Y-108261904D01*
X142738095Y-108166666D01*
X142690476Y-108071428D01*
X142642857Y-108023809D01*
X142547619Y-107976190D01*
X142357142Y-107928571D01*
X142261904Y-107880952D01*
X142214285Y-107833333D01*
X142166666Y-107738095D01*
X142166666Y-107642857D01*
X142214285Y-107547619D01*
X142261904Y-107500000D01*
X142357142Y-107452380D01*
X142595238Y-107452380D01*
X142738095Y-107500000D01*
X143166666Y-107785714D02*
X143166666Y-108785714D01*
X143166666Y-107833333D02*
X143261904Y-107785714D01*
X143452380Y-107785714D01*
X143547619Y-107833333D01*
X143595238Y-107880952D01*
X143642857Y-107976190D01*
X143642857Y-108261904D01*
X143595238Y-108357142D01*
X143547619Y-108404761D01*
X143452380Y-108452380D01*
X143261904Y-108452380D01*
X143166666Y-108404761D01*
X144452380Y-108404761D02*
X144357142Y-108452380D01*
X144166666Y-108452380D01*
X144071428Y-108404761D01*
X144023809Y-108309523D01*
X144023809Y-107928571D01*
X144071428Y-107833333D01*
X144166666Y-107785714D01*
X144357142Y-107785714D01*
X144452380Y-107833333D01*
X144500000Y-107928571D01*
X144500000Y-108023809D01*
X144023809Y-108119047D01*
X145309523Y-108404761D02*
X145214285Y-108452380D01*
X145023809Y-108452380D01*
X144928571Y-108404761D01*
X144880952Y-108309523D01*
X144880952Y-107928571D01*
X144928571Y-107833333D01*
X145023809Y-107785714D01*
X145214285Y-107785714D01*
X145309523Y-107833333D01*
X145357142Y-107928571D01*
X145357142Y-108023809D01*
X144880952Y-108119047D01*
X146214285Y-108452380D02*
X146214285Y-107452380D01*
X146214285Y-108404761D02*
X146119047Y-108452380D01*
X145928571Y-108452380D01*
X145833333Y-108404761D01*
X145785714Y-108357142D01*
X145738095Y-108261904D01*
X145738095Y-107976190D01*
X145785714Y-107880952D01*
X145833333Y-107833333D01*
X145928571Y-107785714D01*
X146119047Y-107785714D01*
X146214285Y-107833333D01*
X116261904Y-108357142D02*
X116214285Y-108404761D01*
X116071428Y-108452380D01*
X115976190Y-108452380D01*
X115833333Y-108404761D01*
X115738095Y-108309523D01*
X115690476Y-108214285D01*
X115642857Y-108023809D01*
X115642857Y-107880952D01*
X115690476Y-107690476D01*
X115738095Y-107595238D01*
X115833333Y-107500000D01*
X115976190Y-107452380D01*
X116071428Y-107452380D01*
X116214285Y-107500000D01*
X116261904Y-107547619D01*
X116833333Y-108452380D02*
X116738095Y-108404761D01*
X116690476Y-108357142D01*
X116642857Y-108261904D01*
X116642857Y-107976190D01*
X116690476Y-107880952D01*
X116738095Y-107833333D01*
X116833333Y-107785714D01*
X116976190Y-107785714D01*
X117071428Y-107833333D01*
X117119047Y-107880952D01*
X117166666Y-107976190D01*
X117166666Y-108261904D01*
X117119047Y-108357142D01*
X117071428Y-108404761D01*
X116976190Y-108452380D01*
X116833333Y-108452380D01*
X118023809Y-107785714D02*
X118023809Y-108452380D01*
X117595238Y-107785714D02*
X117595238Y-108309523D01*
X117642857Y-108404761D01*
X117738095Y-108452380D01*
X117880952Y-108452380D01*
X117976190Y-108404761D01*
X118023809Y-108357142D01*
X118500000Y-108452380D02*
X118500000Y-107785714D01*
X118500000Y-107976190D02*
X118547619Y-107880952D01*
X118595238Y-107833333D01*
X118690476Y-107785714D01*
X118785714Y-107785714D01*
X119071428Y-108404761D02*
X119166666Y-108452380D01*
X119357142Y-108452380D01*
X119452380Y-108404761D01*
X119500000Y-108309523D01*
X119500000Y-108261904D01*
X119452380Y-108166666D01*
X119357142Y-108119047D01*
X119214285Y-108119047D01*
X119119047Y-108071428D01*
X119071428Y-107976190D01*
X119071428Y-107928571D01*
X119119047Y-107833333D01*
X119214285Y-107785714D01*
X119357142Y-107785714D01*
X119452380Y-107833333D01*
X120309523Y-108404761D02*
X120214285Y-108452380D01*
X120023809Y-108452380D01*
X119928571Y-108404761D01*
X119880952Y-108309523D01*
X119880952Y-107928571D01*
X119928571Y-107833333D01*
X120023809Y-107785714D01*
X120214285Y-107785714D01*
X120309523Y-107833333D01*
X120357142Y-107928571D01*
X120357142Y-108023809D01*
X119880952Y-108119047D01*
X93952380Y-108404761D02*
X94095238Y-108452380D01*
X94333333Y-108452380D01*
X94428571Y-108404761D01*
X94476190Y-108357142D01*
X94523809Y-108261904D01*
X94523809Y-108166666D01*
X94476190Y-108071428D01*
X94428571Y-108023809D01*
X94333333Y-107976190D01*
X94142857Y-107928571D01*
X94047619Y-107880952D01*
X94000000Y-107833333D01*
X93952380Y-107738095D01*
X93952380Y-107642857D01*
X94000000Y-107547619D01*
X94047619Y-107500000D01*
X94142857Y-107452380D01*
X94380952Y-107452380D01*
X94523809Y-107500000D01*
X94952380Y-107785714D02*
X94952380Y-108785714D01*
X94952380Y-107833333D02*
X95047619Y-107785714D01*
X95238095Y-107785714D01*
X95333333Y-107833333D01*
X95380952Y-107880952D01*
X95428571Y-107976190D01*
X95428571Y-108261904D01*
X95380952Y-108357142D01*
X95333333Y-108404761D01*
X95238095Y-108452380D01*
X95047619Y-108452380D01*
X94952380Y-108404761D01*
X96238095Y-108404761D02*
X96142857Y-108452380D01*
X95952380Y-108452380D01*
X95857142Y-108404761D01*
X95809523Y-108309523D01*
X95809523Y-107928571D01*
X95857142Y-107833333D01*
X95952380Y-107785714D01*
X96142857Y-107785714D01*
X96238095Y-107833333D01*
X96285714Y-107928571D01*
X96285714Y-108023809D01*
X95809523Y-108119047D01*
X97095238Y-108404761D02*
X97000000Y-108452380D01*
X96809523Y-108452380D01*
X96714285Y-108404761D01*
X96666666Y-108309523D01*
X96666666Y-107928571D01*
X96714285Y-107833333D01*
X96809523Y-107785714D01*
X97000000Y-107785714D01*
X97095238Y-107833333D01*
X97142857Y-107928571D01*
X97142857Y-108023809D01*
X96666666Y-108119047D01*
X98000000Y-108452380D02*
X98000000Y-107452380D01*
X98000000Y-108404761D02*
X97904761Y-108452380D01*
X97714285Y-108452380D01*
X97619047Y-108404761D01*
X97571428Y-108357142D01*
X97523809Y-108261904D01*
X97523809Y-107976190D01*
X97571428Y-107880952D01*
X97619047Y-107833333D01*
X97714285Y-107785714D01*
X97904761Y-107785714D01*
X98000000Y-107833333D01*
X70238095Y-108452380D02*
X70238095Y-107452380D01*
X70238095Y-107928571D02*
X70809523Y-107928571D01*
X70809523Y-108452380D02*
X70809523Y-107452380D01*
X71666666Y-108404761D02*
X71571428Y-108452380D01*
X71380952Y-108452380D01*
X71285714Y-108404761D01*
X71238095Y-108309523D01*
X71238095Y-107928571D01*
X71285714Y-107833333D01*
X71380952Y-107785714D01*
X71571428Y-107785714D01*
X71666666Y-107833333D01*
X71714285Y-107928571D01*
X71714285Y-108023809D01*
X71238095Y-108119047D01*
X72571428Y-108452380D02*
X72571428Y-107928571D01*
X72523809Y-107833333D01*
X72428571Y-107785714D01*
X72238095Y-107785714D01*
X72142857Y-107833333D01*
X72571428Y-108404761D02*
X72476190Y-108452380D01*
X72238095Y-108452380D01*
X72142857Y-108404761D01*
X72095238Y-108309523D01*
X72095238Y-108214285D01*
X72142857Y-108119047D01*
X72238095Y-108071428D01*
X72476190Y-108071428D01*
X72571428Y-108023809D01*
X73476190Y-108452380D02*
X73476190Y-107452380D01*
X73476190Y-108404761D02*
X73380952Y-108452380D01*
X73190476Y-108452380D01*
X73095238Y-108404761D01*
X73047619Y-108357142D01*
X73000000Y-108261904D01*
X73000000Y-107976190D01*
X73047619Y-107880952D01*
X73095238Y-107833333D01*
X73190476Y-107785714D01*
X73380952Y-107785714D01*
X73476190Y-107833333D01*
X73952380Y-108452380D02*
X73952380Y-107785714D01*
X73952380Y-107452380D02*
X73904761Y-107500000D01*
X73952380Y-107547619D01*
X74000000Y-107500000D01*
X73952380Y-107452380D01*
X73952380Y-107547619D01*
X74428571Y-107785714D02*
X74428571Y-108452380D01*
X74428571Y-107880952D02*
X74476190Y-107833333D01*
X74571428Y-107785714D01*
X74714285Y-107785714D01*
X74809523Y-107833333D01*
X74857142Y-107928571D01*
X74857142Y-108452380D01*
X75761904Y-107785714D02*
X75761904Y-108595238D01*
X75714285Y-108690476D01*
X75666666Y-108738095D01*
X75571428Y-108785714D01*
X75428571Y-108785714D01*
X75333333Y-108738095D01*
X75761904Y-108404761D02*
X75666666Y-108452380D01*
X75476190Y-108452380D01*
X75380952Y-108404761D01*
X75333333Y-108357142D01*
X75285714Y-108261904D01*
X75285714Y-107976190D01*
X75333333Y-107880952D01*
X75380952Y-107833333D01*
X75476190Y-107785714D01*
X75666666Y-107785714D01*
X75761904Y-107833333D01*
X65278452Y-135547619D02*
X65323690Y-135500000D01*
X65414166Y-135452380D01*
X65640357Y-135452380D01*
X65730833Y-135500000D01*
X65776071Y-135547619D01*
X65821309Y-135642857D01*
X65821309Y-135738095D01*
X65776071Y-135880952D01*
X65233214Y-136452380D01*
X65821309Y-136452380D01*
X66364166Y-135880952D02*
X66273690Y-135833333D01*
X66228452Y-135785714D01*
X66183214Y-135690476D01*
X66183214Y-135642857D01*
X66228452Y-135547619D01*
X66273690Y-135500000D01*
X66364166Y-135452380D01*
X66545119Y-135452380D01*
X66635595Y-135500000D01*
X66680833Y-135547619D01*
X66726071Y-135642857D01*
X66726071Y-135690476D01*
X66680833Y-135785714D01*
X66635595Y-135833333D01*
X66545119Y-135880952D01*
X66364166Y-135880952D01*
X66273690Y-135928571D01*
X66228452Y-135976190D01*
X66183214Y-136071428D01*
X66183214Y-136261904D01*
X66228452Y-136357142D01*
X66273690Y-136404761D01*
X66364166Y-136452380D01*
X66545119Y-136452380D01*
X66635595Y-136404761D01*
X66680833Y-136357142D01*
X66726071Y-136261904D01*
X66726071Y-136071428D01*
X66680833Y-135976190D01*
X66635595Y-135928571D01*
X66545119Y-135880952D01*
X67811785Y-135547619D02*
X67857023Y-135500000D01*
X67947500Y-135452380D01*
X68173690Y-135452380D01*
X68264166Y-135500000D01*
X68309404Y-135547619D01*
X68354642Y-135642857D01*
X68354642Y-135738095D01*
X68309404Y-135880952D01*
X67766547Y-136452380D01*
X68354642Y-136452380D01*
X68671309Y-135452380D02*
X69304642Y-135452380D01*
X68897500Y-136452380D01*
X70345119Y-135547619D02*
X70390357Y-135500000D01*
X70480833Y-135452380D01*
X70707023Y-135452380D01*
X70797500Y-135500000D01*
X70842738Y-135547619D01*
X70887976Y-135642857D01*
X70887976Y-135738095D01*
X70842738Y-135880952D01*
X70299880Y-136452380D01*
X70887976Y-136452380D01*
X71702261Y-135452380D02*
X71521309Y-135452380D01*
X71430833Y-135500000D01*
X71385595Y-135547619D01*
X71295119Y-135690476D01*
X71249880Y-135880952D01*
X71249880Y-136261904D01*
X71295119Y-136357142D01*
X71340357Y-136404761D01*
X71430833Y-136452380D01*
X71611785Y-136452380D01*
X71702261Y-136404761D01*
X71747500Y-136357142D01*
X71792738Y-136261904D01*
X71792738Y-136023809D01*
X71747500Y-135928571D01*
X71702261Y-135880952D01*
X71611785Y-135833333D01*
X71430833Y-135833333D01*
X71340357Y-135880952D01*
X71295119Y-135928571D01*
X71249880Y-136023809D01*
X72878452Y-135547619D02*
X72923690Y-135500000D01*
X73014166Y-135452380D01*
X73240357Y-135452380D01*
X73330833Y-135500000D01*
X73376071Y-135547619D01*
X73421309Y-135642857D01*
X73421309Y-135738095D01*
X73376071Y-135880952D01*
X72833214Y-136452380D01*
X73421309Y-136452380D01*
X74280833Y-135452380D02*
X73828452Y-135452380D01*
X73783214Y-135928571D01*
X73828452Y-135880952D01*
X73918928Y-135833333D01*
X74145119Y-135833333D01*
X74235595Y-135880952D01*
X74280833Y-135928571D01*
X74326071Y-136023809D01*
X74326071Y-136261904D01*
X74280833Y-136357142D01*
X74235595Y-136404761D01*
X74145119Y-136452380D01*
X73918928Y-136452380D01*
X73828452Y-136404761D01*
X73783214Y-136357142D01*
X75411785Y-135547619D02*
X75457023Y-135500000D01*
X75547500Y-135452380D01*
X75773690Y-135452380D01*
X75864166Y-135500000D01*
X75909404Y-135547619D01*
X75954642Y-135642857D01*
X75954642Y-135738095D01*
X75909404Y-135880952D01*
X75366547Y-136452380D01*
X75954642Y-136452380D01*
X76768928Y-135785714D02*
X76768928Y-136452380D01*
X76542738Y-135404761D02*
X76316547Y-136119047D01*
X76904642Y-136119047D01*
X77945119Y-135547619D02*
X77990357Y-135500000D01*
X78080833Y-135452380D01*
X78307023Y-135452380D01*
X78397500Y-135500000D01*
X78442738Y-135547619D01*
X78487976Y-135642857D01*
X78487976Y-135738095D01*
X78442738Y-135880952D01*
X77899880Y-136452380D01*
X78487976Y-136452380D01*
X78804642Y-135452380D02*
X79392738Y-135452380D01*
X79076071Y-135833333D01*
X79211785Y-135833333D01*
X79302261Y-135880952D01*
X79347500Y-135928571D01*
X79392738Y-136023809D01*
X79392738Y-136261904D01*
X79347500Y-136357142D01*
X79302261Y-136404761D01*
X79211785Y-136452380D01*
X78940357Y-136452380D01*
X78849880Y-136404761D01*
X78804642Y-136357142D01*
X80478452Y-135547619D02*
X80523690Y-135500000D01*
X80614166Y-135452380D01*
X80840357Y-135452380D01*
X80930833Y-135500000D01*
X80976071Y-135547619D01*
X81021309Y-135642857D01*
X81021309Y-135738095D01*
X80976071Y-135880952D01*
X80433214Y-136452380D01*
X81021309Y-136452380D01*
X81383214Y-135547619D02*
X81428452Y-135500000D01*
X81518928Y-135452380D01*
X81745119Y-135452380D01*
X81835595Y-135500000D01*
X81880833Y-135547619D01*
X81926071Y-135642857D01*
X81926071Y-135738095D01*
X81880833Y-135880952D01*
X81337976Y-136452380D01*
X81926071Y-136452380D01*
X83011785Y-135547619D02*
X83057023Y-135500000D01*
X83147500Y-135452380D01*
X83373690Y-135452380D01*
X83464166Y-135500000D01*
X83509404Y-135547619D01*
X83554642Y-135642857D01*
X83554642Y-135738095D01*
X83509404Y-135880952D01*
X82966547Y-136452380D01*
X83554642Y-136452380D01*
X84459404Y-136452380D02*
X83916547Y-136452380D01*
X84187976Y-136452380D02*
X84187976Y-135452380D01*
X84097500Y-135595238D01*
X84007023Y-135690476D01*
X83916547Y-135738095D01*
X85545119Y-135547619D02*
X85590357Y-135500000D01*
X85680833Y-135452380D01*
X85907023Y-135452380D01*
X85997500Y-135500000D01*
X86042738Y-135547619D01*
X86087976Y-135642857D01*
X86087976Y-135738095D01*
X86042738Y-135880952D01*
X85499880Y-136452380D01*
X86087976Y-136452380D01*
X86676071Y-135452380D02*
X86766547Y-135452380D01*
X86857023Y-135500000D01*
X86902261Y-135547619D01*
X86947500Y-135642857D01*
X86992738Y-135833333D01*
X86992738Y-136071428D01*
X86947500Y-136261904D01*
X86902261Y-136357142D01*
X86857023Y-136404761D01*
X86766547Y-136452380D01*
X86676071Y-136452380D01*
X86585595Y-136404761D01*
X86540357Y-136357142D01*
X86495119Y-136261904D01*
X86449880Y-136071428D01*
X86449880Y-135833333D01*
X86495119Y-135642857D01*
X86540357Y-135547619D01*
X86585595Y-135500000D01*
X86676071Y-135452380D01*
X88621309Y-136452380D02*
X88078452Y-136452380D01*
X88349880Y-136452380D02*
X88349880Y-135452380D01*
X88259404Y-135595238D01*
X88168928Y-135690476D01*
X88078452Y-135738095D01*
X89073690Y-136452380D02*
X89254642Y-136452380D01*
X89345119Y-136404761D01*
X89390357Y-136357142D01*
X89480833Y-136214285D01*
X89526071Y-136023809D01*
X89526071Y-135642857D01*
X89480833Y-135547619D01*
X89435595Y-135500000D01*
X89345119Y-135452380D01*
X89164166Y-135452380D01*
X89073690Y-135500000D01*
X89028452Y-135547619D01*
X88983214Y-135642857D01*
X88983214Y-135880952D01*
X89028452Y-135976190D01*
X89073690Y-136023809D01*
X89164166Y-136071428D01*
X89345119Y-136071428D01*
X89435595Y-136023809D01*
X89480833Y-135976190D01*
X89526071Y-135880952D01*
X91154642Y-136452380D02*
X90611785Y-136452380D01*
X90883214Y-136452380D02*
X90883214Y-135452380D01*
X90792738Y-135595238D01*
X90702261Y-135690476D01*
X90611785Y-135738095D01*
X91697499Y-135880952D02*
X91607023Y-135833333D01*
X91561785Y-135785714D01*
X91516547Y-135690476D01*
X91516547Y-135642857D01*
X91561785Y-135547619D01*
X91607023Y-135500000D01*
X91697499Y-135452380D01*
X91878452Y-135452380D01*
X91968928Y-135500000D01*
X92014166Y-135547619D01*
X92059404Y-135642857D01*
X92059404Y-135690476D01*
X92014166Y-135785714D01*
X91968928Y-135833333D01*
X91878452Y-135880952D01*
X91697499Y-135880952D01*
X91607023Y-135928571D01*
X91561785Y-135976190D01*
X91516547Y-136071428D01*
X91516547Y-136261904D01*
X91561785Y-136357142D01*
X91607023Y-136404761D01*
X91697499Y-136452380D01*
X91878452Y-136452380D01*
X91968928Y-136404761D01*
X92014166Y-136357142D01*
X92059404Y-136261904D01*
X92059404Y-136071428D01*
X92014166Y-135976190D01*
X91968928Y-135928571D01*
X91878452Y-135880952D01*
X93687976Y-136452380D02*
X93145119Y-136452380D01*
X93416547Y-136452380D02*
X93416547Y-135452380D01*
X93326071Y-135595238D01*
X93235595Y-135690476D01*
X93145119Y-135738095D01*
X94004642Y-135452380D02*
X94637976Y-135452380D01*
X94230833Y-136452380D01*
X96221309Y-136452380D02*
X95678452Y-136452380D01*
X95949880Y-136452380D02*
X95949880Y-135452380D01*
X95859404Y-135595238D01*
X95768928Y-135690476D01*
X95678452Y-135738095D01*
X97035595Y-135452380D02*
X96854642Y-135452380D01*
X96764166Y-135500000D01*
X96718928Y-135547619D01*
X96628452Y-135690476D01*
X96583214Y-135880952D01*
X96583214Y-136261904D01*
X96628452Y-136357142D01*
X96673690Y-136404761D01*
X96764166Y-136452380D01*
X96945119Y-136452380D01*
X97035595Y-136404761D01*
X97080833Y-136357142D01*
X97126071Y-136261904D01*
X97126071Y-136023809D01*
X97080833Y-135928571D01*
X97035595Y-135880952D01*
X96945119Y-135833333D01*
X96764166Y-135833333D01*
X96673690Y-135880952D01*
X96628452Y-135928571D01*
X96583214Y-136023809D01*
X98754642Y-136452380D02*
X98211785Y-136452380D01*
X98483214Y-136452380D02*
X98483214Y-135452380D01*
X98392738Y-135595238D01*
X98302261Y-135690476D01*
X98211785Y-135738095D01*
X99614166Y-135452380D02*
X99161785Y-135452380D01*
X99116547Y-135928571D01*
X99161785Y-135880952D01*
X99252261Y-135833333D01*
X99478452Y-135833333D01*
X99568928Y-135880952D01*
X99614166Y-135928571D01*
X99659404Y-136023809D01*
X99659404Y-136261904D01*
X99614166Y-136357142D01*
X99568928Y-136404761D01*
X99478452Y-136452380D01*
X99252261Y-136452380D01*
X99161785Y-136404761D01*
X99116547Y-136357142D01*
X65859404Y-146452380D02*
X65287976Y-146452380D01*
X65573690Y-146452380D02*
X65573690Y-145452380D01*
X65478452Y-145595238D01*
X65383214Y-145690476D01*
X65287976Y-145738095D01*
X67764166Y-145547619D02*
X67811785Y-145500000D01*
X67907023Y-145452380D01*
X68145119Y-145452380D01*
X68240357Y-145500000D01*
X68287976Y-145547619D01*
X68335595Y-145642857D01*
X68335595Y-145738095D01*
X68287976Y-145880952D01*
X67716547Y-146452380D01*
X68335595Y-146452380D01*
X70192738Y-145452380D02*
X70811785Y-145452380D01*
X70478452Y-145833333D01*
X70621309Y-145833333D01*
X70716547Y-145880952D01*
X70764166Y-145928571D01*
X70811785Y-146023809D01*
X70811785Y-146261904D01*
X70764166Y-146357142D01*
X70716547Y-146404761D01*
X70621309Y-146452380D01*
X70335595Y-146452380D01*
X70240357Y-146404761D01*
X70192738Y-146357142D01*
X73192738Y-145785714D02*
X73192738Y-146452380D01*
X72954642Y-145404761D02*
X72716547Y-146119047D01*
X73335595Y-146119047D01*
X75716547Y-145452380D02*
X75240357Y-145452380D01*
X75192738Y-145928571D01*
X75240357Y-145880952D01*
X75335595Y-145833333D01*
X75573690Y-145833333D01*
X75668928Y-145880952D01*
X75716547Y-145928571D01*
X75764166Y-146023809D01*
X75764166Y-146261904D01*
X75716547Y-146357142D01*
X75668928Y-146404761D01*
X75573690Y-146452380D01*
X75335595Y-146452380D01*
X75240357Y-146404761D01*
X75192738Y-146357142D01*
X78145119Y-145452380D02*
X77954642Y-145452380D01*
X77859404Y-145500000D01*
X77811785Y-145547619D01*
X77716547Y-145690476D01*
X77668928Y-145880952D01*
X77668928Y-146261904D01*
X77716547Y-146357142D01*
X77764166Y-146404761D01*
X77859404Y-146452380D01*
X78049880Y-146452380D01*
X78145119Y-146404761D01*
X78192738Y-146357142D01*
X78240357Y-146261904D01*
X78240357Y-146023809D01*
X78192738Y-145928571D01*
X78145119Y-145880952D01*
X78049880Y-145833333D01*
X77859404Y-145833333D01*
X77764166Y-145880952D01*
X77716547Y-145928571D01*
X77668928Y-146023809D01*
X80097500Y-145452380D02*
X80764166Y-145452380D01*
X80335595Y-146452380D01*
X82811785Y-145880952D02*
X82716547Y-145833333D01*
X82668928Y-145785714D01*
X82621309Y-145690476D01*
X82621309Y-145642857D01*
X82668928Y-145547619D01*
X82716547Y-145500000D01*
X82811785Y-145452380D01*
X83002261Y-145452380D01*
X83097500Y-145500000D01*
X83145119Y-145547619D01*
X83192738Y-145642857D01*
X83192738Y-145690476D01*
X83145119Y-145785714D01*
X83097500Y-145833333D01*
X83002261Y-145880952D01*
X82811785Y-145880952D01*
X82716547Y-145928571D01*
X82668928Y-145976190D01*
X82621309Y-146071428D01*
X82621309Y-146261904D01*
X82668928Y-146357142D01*
X82716547Y-146404761D01*
X82811785Y-146452380D01*
X83002261Y-146452380D01*
X83097500Y-146404761D01*
X83145119Y-146357142D01*
X83192738Y-146261904D01*
X83192738Y-146071428D01*
X83145119Y-145976190D01*
X83097500Y-145928571D01*
X83002261Y-145880952D01*
X85192738Y-146452380D02*
X85383214Y-146452380D01*
X85478452Y-146404761D01*
X85526071Y-146357142D01*
X85621309Y-146214285D01*
X85668928Y-146023809D01*
X85668928Y-145642857D01*
X85621309Y-145547619D01*
X85573690Y-145500000D01*
X85478452Y-145452380D01*
X85287976Y-145452380D01*
X85192738Y-145500000D01*
X85145119Y-145547619D01*
X85097500Y-145642857D01*
X85097500Y-145880952D01*
X85145119Y-145976190D01*
X85192738Y-146023809D01*
X85287976Y-146071428D01*
X85478452Y-146071428D01*
X85573690Y-146023809D01*
X85621309Y-145976190D01*
X85668928Y-145880952D01*
X88145119Y-146452380D02*
X87573690Y-146452380D01*
X87859404Y-146452380D02*
X87859404Y-145452380D01*
X87764166Y-145595238D01*
X87668928Y-145690476D01*
X87573690Y-145738095D01*
X88764166Y-145452380D02*
X88859404Y-145452380D01*
X88954642Y-145500000D01*
X89002261Y-145547619D01*
X89049880Y-145642857D01*
X89097499Y-145833333D01*
X89097499Y-146071428D01*
X89049880Y-146261904D01*
X89002261Y-146357142D01*
X88954642Y-146404761D01*
X88859404Y-146452380D01*
X88764166Y-146452380D01*
X88668928Y-146404761D01*
X88621309Y-146357142D01*
X88573690Y-146261904D01*
X88526071Y-146071428D01*
X88526071Y-145833333D01*
X88573690Y-145642857D01*
X88621309Y-145547619D01*
X88668928Y-145500000D01*
X88764166Y-145452380D01*
X90811785Y-146452380D02*
X90240357Y-146452380D01*
X90526071Y-146452380D02*
X90526071Y-145452380D01*
X90430833Y-145595238D01*
X90335595Y-145690476D01*
X90240357Y-145738095D01*
X91764166Y-146452380D02*
X91192738Y-146452380D01*
X91478452Y-146452380D02*
X91478452Y-145452380D01*
X91383214Y-145595238D01*
X91287976Y-145690476D01*
X91192738Y-145738095D01*
X93478452Y-146452380D02*
X92907023Y-146452380D01*
X93192738Y-146452380D02*
X93192738Y-145452380D01*
X93097499Y-145595238D01*
X93002261Y-145690476D01*
X92907023Y-145738095D01*
X93859404Y-145547619D02*
X93907023Y-145500000D01*
X94002261Y-145452380D01*
X94240357Y-145452380D01*
X94335595Y-145500000D01*
X94383214Y-145547619D01*
X94430833Y-145642857D01*
X94430833Y-145738095D01*
X94383214Y-145880952D01*
X93811785Y-146452380D01*
X94430833Y-146452380D01*
X96145119Y-146452380D02*
X95573690Y-146452380D01*
X95859404Y-146452380D02*
X95859404Y-145452380D01*
X95764166Y-145595238D01*
X95668928Y-145690476D01*
X95573690Y-145738095D01*
X96478452Y-145452380D02*
X97097499Y-145452380D01*
X96764166Y-145833333D01*
X96907023Y-145833333D01*
X97002261Y-145880952D01*
X97049880Y-145928571D01*
X97097499Y-146023809D01*
X97097499Y-146261904D01*
X97049880Y-146357142D01*
X97002261Y-146404761D01*
X96907023Y-146452380D01*
X96621309Y-146452380D01*
X96526071Y-146404761D01*
X96478452Y-146357142D01*
X98811785Y-146452380D02*
X98240357Y-146452380D01*
X98526071Y-146452380D02*
X98526071Y-145452380D01*
X98430833Y-145595238D01*
X98335595Y-145690476D01*
X98240357Y-145738095D01*
X99668928Y-145785714D02*
X99668928Y-146452380D01*
X99430833Y-145404761D02*
X99192738Y-146119047D01*
X99811785Y-146119047D01*
X126285714Y-140234523D02*
X126571428Y-140329761D01*
X127047619Y-140329761D01*
X127238095Y-140234523D01*
X127333333Y-140139285D01*
X127428571Y-139948809D01*
X127428571Y-139758333D01*
X127333333Y-139567857D01*
X127238095Y-139472619D01*
X127047619Y-139377380D01*
X126666666Y-139282142D01*
X126476190Y-139186904D01*
X126380952Y-139091666D01*
X126285714Y-138901190D01*
X126285714Y-138710714D01*
X126380952Y-138520238D01*
X126476190Y-138425000D01*
X126666666Y-138329761D01*
X127142857Y-138329761D01*
X127428571Y-138425000D01*
X128285714Y-140329761D02*
X128285714Y-138996428D01*
X128285714Y-138329761D02*
X128190476Y-138425000D01*
X128285714Y-138520238D01*
X128380952Y-138425000D01*
X128285714Y-138329761D01*
X128285714Y-138520238D01*
X129238095Y-140329761D02*
X129238095Y-138996428D01*
X129238095Y-139186904D02*
X129333333Y-139091666D01*
X129523809Y-138996428D01*
X129809523Y-138996428D01*
X130000000Y-139091666D01*
X130095238Y-139282142D01*
X130095238Y-140329761D01*
X130095238Y-139282142D02*
X130190476Y-139091666D01*
X130380952Y-138996428D01*
X130666666Y-138996428D01*
X130857142Y-139091666D01*
X130952380Y-139282142D01*
X130952380Y-140329761D01*
X133333333Y-139758333D02*
X134285714Y-139758333D01*
X133142857Y-140329761D02*
X133809523Y-138329761D01*
X134476190Y-140329761D01*
X136000000Y-138996428D02*
X136000000Y-140329761D01*
X135142857Y-138996428D02*
X135142857Y-140044047D01*
X135238095Y-140234523D01*
X135428571Y-140329761D01*
X135714285Y-140329761D01*
X135904761Y-140234523D01*
X136000000Y-140139285D01*
X136666666Y-138996428D02*
X137428571Y-138996428D01*
X136952380Y-138329761D02*
X136952380Y-140044047D01*
X137047619Y-140234523D01*
X137238095Y-140329761D01*
X137428571Y-140329761D01*
X138380952Y-140329761D02*
X138190476Y-140234523D01*
X138095238Y-140139285D01*
X138000000Y-139948809D01*
X138000000Y-139377380D01*
X138095238Y-139186904D01*
X138190476Y-139091666D01*
X138380952Y-138996428D01*
X138666666Y-138996428D01*
X138857142Y-139091666D01*
X138952380Y-139186904D01*
X139047619Y-139377380D01*
X139047619Y-139948809D01*
X138952380Y-140139285D01*
X138857142Y-140234523D01*
X138666666Y-140329761D01*
X138380952Y-140329761D01*
X139904761Y-138996428D02*
X139904761Y-140996428D01*
X139904761Y-139091666D02*
X140095238Y-138996428D01*
X140476190Y-138996428D01*
X140666666Y-139091666D01*
X140761904Y-139186904D01*
X140857142Y-139377380D01*
X140857142Y-139948809D01*
X140761904Y-140139285D01*
X140666666Y-140234523D01*
X140476190Y-140329761D01*
X140095238Y-140329761D01*
X139904761Y-140234523D01*
X141714285Y-140329761D02*
X141714285Y-138996428D01*
X141714285Y-138329761D02*
X141619047Y-138425000D01*
X141714285Y-138520238D01*
X141809523Y-138425000D01*
X141714285Y-138329761D01*
X141714285Y-138520238D01*
X142952380Y-140329761D02*
X142761904Y-140234523D01*
X142666666Y-140044047D01*
X142666666Y-138329761D01*
X144000000Y-140329761D02*
X143809523Y-140234523D01*
X143714285Y-140139285D01*
X143619047Y-139948809D01*
X143619047Y-139377380D01*
X143714285Y-139186904D01*
X143809523Y-139091666D01*
X144000000Y-138996428D01*
X144285714Y-138996428D01*
X144476190Y-139091666D01*
X144571428Y-139186904D01*
X144666666Y-139377380D01*
X144666666Y-139948809D01*
X144571428Y-140139285D01*
X144476190Y-140234523D01*
X144285714Y-140329761D01*
X144000000Y-140329761D01*
X145238095Y-138996428D02*
X146000000Y-138996428D01*
X145523809Y-138329761D02*
X145523809Y-140044047D01*
X145619047Y-140234523D01*
X145809523Y-140329761D01*
X146000000Y-140329761D01*
X148190476Y-140329761D02*
X148190476Y-138329761D01*
X148952380Y-138329761D01*
X149142857Y-138425000D01*
X149238095Y-138520238D01*
X149333333Y-138710714D01*
X149333333Y-138996428D01*
X149238095Y-139186904D01*
X149142857Y-139282142D01*
X148952380Y-139377380D01*
X148190476Y-139377380D01*
X151047619Y-140329761D02*
X151047619Y-139282142D01*
X150952380Y-139091666D01*
X150761904Y-138996428D01*
X150380952Y-138996428D01*
X150190476Y-139091666D01*
X151047619Y-140234523D02*
X150857142Y-140329761D01*
X150380952Y-140329761D01*
X150190476Y-140234523D01*
X150095238Y-140044047D01*
X150095238Y-139853571D01*
X150190476Y-139663095D01*
X150380952Y-139567857D01*
X150857142Y-139567857D01*
X151047619Y-139472619D01*
X152000000Y-138996428D02*
X152000000Y-140329761D01*
X152000000Y-139186904D02*
X152095238Y-139091666D01*
X152285714Y-138996428D01*
X152571428Y-138996428D01*
X152761904Y-139091666D01*
X152857142Y-139282142D01*
X152857142Y-140329761D01*
X154571428Y-140234523D02*
X154380952Y-140329761D01*
X154000000Y-140329761D01*
X153809523Y-140234523D01*
X153714285Y-140044047D01*
X153714285Y-139282142D01*
X153809523Y-139091666D01*
X154000000Y-138996428D01*
X154380952Y-138996428D01*
X154571428Y-139091666D01*
X154666666Y-139282142D01*
X154666666Y-139472619D01*
X153714285Y-139663095D01*
X155809523Y-140329761D02*
X155619047Y-140234523D01*
X155523809Y-140044047D01*
X155523809Y-138329761D01*
X157809523Y-138329761D02*
X158476190Y-140329761D01*
X159142857Y-138329761D01*
X160190476Y-138329761D02*
X160380952Y-138329761D01*
X160571428Y-138425000D01*
X160666666Y-138520238D01*
X160761904Y-138710714D01*
X160857142Y-139091666D01*
X160857142Y-139567857D01*
X160761904Y-139948809D01*
X160666666Y-140139285D01*
X160571428Y-140234523D01*
X160380952Y-140329761D01*
X160190476Y-140329761D01*
X160000000Y-140234523D01*
X159904761Y-140139285D01*
X159809523Y-139948809D01*
X159714285Y-139567857D01*
X159714285Y-139091666D01*
X159809523Y-138710714D01*
X159904761Y-138520238D01*
X160000000Y-138425000D01*
X160190476Y-138329761D01*
X161714285Y-140139285D02*
X161809523Y-140234523D01*
X161714285Y-140329761D01*
X161619047Y-140234523D01*
X161714285Y-140139285D01*
X161714285Y-140329761D01*
X163714285Y-140329761D02*
X162571428Y-140329761D01*
X163142857Y-140329761D02*
X163142857Y-138329761D01*
X162952380Y-138615476D01*
X162761904Y-138805952D01*
X162571428Y-138901190D01*
X134380952Y-143479761D02*
X134380952Y-141479761D01*
X134380952Y-142241666D02*
X134571428Y-142146428D01*
X134952380Y-142146428D01*
X135142857Y-142241666D01*
X135238095Y-142336904D01*
X135333333Y-142527380D01*
X135333333Y-143098809D01*
X135238095Y-143289285D01*
X135142857Y-143384523D01*
X134952380Y-143479761D01*
X134571428Y-143479761D01*
X134380952Y-143384523D01*
X136000000Y-142146428D02*
X136476190Y-143479761D01*
X136952380Y-142146428D02*
X136476190Y-143479761D01*
X136285714Y-143955952D01*
X136190476Y-144051190D01*
X136000000Y-144146428D01*
X140190476Y-143479761D02*
X139238095Y-143479761D01*
X139238095Y-141479761D01*
X141714285Y-142146428D02*
X141714285Y-143479761D01*
X140857142Y-142146428D02*
X140857142Y-143194047D01*
X140952380Y-143384523D01*
X141142857Y-143479761D01*
X141428571Y-143479761D01*
X141619047Y-143384523D01*
X141714285Y-143289285D01*
X143523809Y-143384523D02*
X143333333Y-143479761D01*
X142952380Y-143479761D01*
X142761904Y-143384523D01*
X142666666Y-143289285D01*
X142571428Y-143098809D01*
X142571428Y-142527380D01*
X142666666Y-142336904D01*
X142761904Y-142241666D01*
X142952380Y-142146428D01*
X143333333Y-142146428D01*
X143523809Y-142241666D01*
X145619047Y-141479761D02*
X146285714Y-143479761D01*
X146952380Y-141479761D01*
X148476190Y-143479761D02*
X148476190Y-142432142D01*
X148380952Y-142241666D01*
X148190476Y-142146428D01*
X147809523Y-142146428D01*
X147619047Y-142241666D01*
X148476190Y-143384523D02*
X148285714Y-143479761D01*
X147809523Y-143479761D01*
X147619047Y-143384523D01*
X147523809Y-143194047D01*
X147523809Y-143003571D01*
X147619047Y-142813095D01*
X147809523Y-142717857D01*
X148285714Y-142717857D01*
X148476190Y-142622619D01*
X150285714Y-143384523D02*
X150095238Y-143479761D01*
X149714285Y-143479761D01*
X149523809Y-143384523D01*
X149428571Y-143289285D01*
X149333333Y-143098809D01*
X149333333Y-142527380D01*
X149428571Y-142336904D01*
X149523809Y-142241666D01*
X149714285Y-142146428D01*
X150095238Y-142146428D01*
X150285714Y-142241666D01*
X151142857Y-143479761D02*
X151142857Y-141479761D01*
X152000000Y-143479761D02*
X152000000Y-142432142D01*
X151904761Y-142241666D01*
X151714285Y-142146428D01*
X151428571Y-142146428D01*
X151238095Y-142241666D01*
X151142857Y-142336904D01*
X153238095Y-143479761D02*
X153047619Y-143384523D01*
X152952380Y-143289285D01*
X152857142Y-143098809D01*
X152857142Y-142527380D01*
X152952380Y-142336904D01*
X153047619Y-142241666D01*
X153238095Y-142146428D01*
X153523809Y-142146428D01*
X153714285Y-142241666D01*
X153809523Y-142336904D01*
X153904761Y-142527380D01*
X153904761Y-143098809D01*
X153809523Y-143289285D01*
X153714285Y-143384523D01*
X153523809Y-143479761D01*
X153238095Y-143479761D01*
X154761904Y-142146428D02*
X154761904Y-143479761D01*
X154761904Y-142336904D02*
X154857142Y-142241666D01*
X155047619Y-142146428D01*
X155333333Y-142146428D01*
X155523809Y-142241666D01*
X155619047Y-142432142D01*
X155619047Y-143479761D01*
D11*
%TO.C,J1*%
X105800000Y-108200000D02*
X105800000Y-105800000D01*
X108200000Y-108200000D02*
X105800000Y-108200000D01*
X108200000Y-105800000D02*
X108200000Y-108200000D01*
X105800000Y-105800000D02*
X108200000Y-105800000D01*
%TO.C,U1*%
X64650000Y-132020000D02*
X64650000Y-149920000D01*
X115690000Y-132020000D02*
X64650000Y-132020000D01*
X115690000Y-149920000D02*
X115690000Y-132020000D01*
X64650000Y-149920000D02*
X115690000Y-149920000D01*
X64710000Y-134510000D02*
X64710000Y-139970000D01*
X115630000Y-134510000D02*
X64710000Y-134510000D01*
X115630000Y-147430000D02*
X115630000Y-134510000D01*
X64710000Y-147430000D02*
X115630000Y-147430000D01*
X64710000Y-141970000D02*
X64710000Y-147430000D01*
X64710000Y-139970000D02*
G75*
G02*
X64710000Y-141970000I0J-1000000D01*
G01*
%TO.C,SW7*%
X139430000Y-82970000D02*
X143930000Y-82970000D01*
X138180000Y-78970000D02*
X138180000Y-80470000D01*
X143930000Y-76470000D02*
X139430000Y-76470000D01*
X145180000Y-80470000D02*
X145180000Y-78970000D01*
%TO.C,SW1*%
X162290000Y-96940000D02*
X166790000Y-96940000D01*
X161040000Y-92940000D02*
X161040000Y-94440000D01*
X166790000Y-90440000D02*
X162290000Y-90440000D01*
X168040000Y-94440000D02*
X168040000Y-92940000D01*
%TO.C,SW3*%
X122320000Y-94440000D02*
X122320000Y-92940000D01*
X121070000Y-90440000D02*
X116570000Y-90440000D01*
X115320000Y-92940000D02*
X115320000Y-94440000D01*
X116570000Y-96940000D02*
X121070000Y-96940000D01*
%TO.C,SW5*%
X70850000Y-96940000D02*
X75350000Y-96940000D01*
X69600000Y-92940000D02*
X69600000Y-94440000D01*
X75350000Y-90440000D02*
X70850000Y-90440000D01*
X76600000Y-94440000D02*
X76600000Y-92940000D01*
%TO.C,SW2*%
X139430000Y-96940000D02*
X143930000Y-96940000D01*
X138180000Y-92940000D02*
X138180000Y-94440000D01*
X143930000Y-90440000D02*
X139430000Y-90440000D01*
X145180000Y-94440000D02*
X145180000Y-92940000D01*
%TO.C,SW10*%
X70850000Y-82970000D02*
X75350000Y-82970000D01*
X69600000Y-78970000D02*
X69600000Y-80470000D01*
X75350000Y-76470000D02*
X70850000Y-76470000D01*
X76600000Y-80470000D02*
X76600000Y-78970000D01*
%TO.C,SW9*%
X93710000Y-82970000D02*
X98210000Y-82970000D01*
X92460000Y-78970000D02*
X92460000Y-80470000D01*
X98210000Y-76470000D02*
X93710000Y-76470000D01*
X99460000Y-80470000D02*
X99460000Y-78970000D01*
%TO.C,SW8*%
X116570000Y-82970000D02*
X121070000Y-82970000D01*
X115320000Y-78970000D02*
X115320000Y-80470000D01*
X121070000Y-76470000D02*
X116570000Y-76470000D01*
X122320000Y-80470000D02*
X122320000Y-78970000D01*
%TO.C,SW6*%
X162290000Y-82970000D02*
X166790000Y-82970000D01*
X161040000Y-78970000D02*
X161040000Y-80470000D01*
X166790000Y-76470000D02*
X162290000Y-76470000D01*
X168040000Y-80470000D02*
X168040000Y-78970000D01*
%TO.C,SW4*%
X93710000Y-96940000D02*
X98210000Y-96940000D01*
X92460000Y-92940000D02*
X92460000Y-94440000D01*
X98210000Y-90440000D02*
X93710000Y-90440000D01*
X99460000Y-94440000D02*
X99460000Y-92940000D01*
%TO.C,SW12*%
X95870000Y-116880000D02*
X94870000Y-116880000D01*
X95370000Y-117380000D02*
X95370000Y-116380000D01*
X89270000Y-113380000D02*
X89270000Y-110980000D01*
X89270000Y-118180000D02*
X89270000Y-115580000D01*
X89270000Y-122780000D02*
X89270000Y-120380000D01*
X102570000Y-120980000D02*
X102870000Y-120680000D01*
X103170000Y-120980000D02*
X102570000Y-120980000D01*
X102870000Y-120680000D02*
X103170000Y-120980000D01*
X101470000Y-122780000D02*
X101470000Y-110980000D01*
X97370000Y-122780000D02*
X101470000Y-122780000D01*
X97370000Y-110980000D02*
X101470000Y-110980000D01*
X89270000Y-110980000D02*
X93370000Y-110980000D01*
X93370000Y-122780000D02*
X89270000Y-122780000D01*
X98370000Y-116880000D02*
G75*
G03*
X98370000Y-116880000I-3000000J0D01*
G01*
%TO.C,SW15*%
X166950000Y-116880000D02*
G75*
G03*
X166950000Y-116880000I-3000000J0D01*
G01*
X161950000Y-122780000D02*
X157850000Y-122780000D01*
X157850000Y-110980000D02*
X161950000Y-110980000D01*
X165950000Y-110980000D02*
X170050000Y-110980000D01*
X165950000Y-122780000D02*
X170050000Y-122780000D01*
X170050000Y-122780000D02*
X170050000Y-110980000D01*
X171450000Y-120680000D02*
X171750000Y-120980000D01*
X171750000Y-120980000D02*
X171150000Y-120980000D01*
X171150000Y-120980000D02*
X171450000Y-120680000D01*
X157850000Y-122780000D02*
X157850000Y-120380000D01*
X157850000Y-118180000D02*
X157850000Y-115580000D01*
X157850000Y-113380000D02*
X157850000Y-110980000D01*
X163950000Y-117380000D02*
X163950000Y-116380000D01*
X164450000Y-116880000D02*
X163450000Y-116880000D01*
%TO.C,SW14*%
X141590000Y-116880000D02*
X140590000Y-116880000D01*
X141090000Y-117380000D02*
X141090000Y-116380000D01*
X134990000Y-113380000D02*
X134990000Y-110980000D01*
X134990000Y-118180000D02*
X134990000Y-115580000D01*
X134990000Y-122780000D02*
X134990000Y-120380000D01*
X148290000Y-120980000D02*
X148590000Y-120680000D01*
X148890000Y-120980000D02*
X148290000Y-120980000D01*
X148590000Y-120680000D02*
X148890000Y-120980000D01*
X147190000Y-122780000D02*
X147190000Y-110980000D01*
X143090000Y-122780000D02*
X147190000Y-122780000D01*
X143090000Y-110980000D02*
X147190000Y-110980000D01*
X134990000Y-110980000D02*
X139090000Y-110980000D01*
X139090000Y-122780000D02*
X134990000Y-122780000D01*
X144090000Y-116880000D02*
G75*
G03*
X144090000Y-116880000I-3000000J0D01*
G01*
%TO.C,SW13*%
X118730000Y-116880000D02*
X117730000Y-116880000D01*
X118230000Y-117380000D02*
X118230000Y-116380000D01*
X112130000Y-113380000D02*
X112130000Y-110980000D01*
X112130000Y-118180000D02*
X112130000Y-115580000D01*
X112130000Y-122780000D02*
X112130000Y-120380000D01*
X125430000Y-120980000D02*
X125730000Y-120680000D01*
X126030000Y-120980000D02*
X125430000Y-120980000D01*
X125730000Y-120680000D02*
X126030000Y-120980000D01*
X124330000Y-122780000D02*
X124330000Y-110980000D01*
X120230000Y-122780000D02*
X124330000Y-122780000D01*
X120230000Y-110980000D02*
X124330000Y-110980000D01*
X112130000Y-110980000D02*
X116230000Y-110980000D01*
X116230000Y-122780000D02*
X112130000Y-122780000D01*
X121230000Y-116880000D02*
G75*
G03*
X121230000Y-116880000I-3000000J0D01*
G01*
%TO.C,SW11*%
X73010000Y-116880000D02*
X72010000Y-116880000D01*
X72510000Y-117380000D02*
X72510000Y-116380000D01*
X66410000Y-113380000D02*
X66410000Y-110980000D01*
X66410000Y-118180000D02*
X66410000Y-115580000D01*
X66410000Y-122780000D02*
X66410000Y-120380000D01*
X79710000Y-120980000D02*
X80010000Y-120680000D01*
X80310000Y-120980000D02*
X79710000Y-120980000D01*
X80010000Y-120680000D02*
X80310000Y-120980000D01*
X78610000Y-122780000D02*
X78610000Y-110980000D01*
X74510000Y-122780000D02*
X78610000Y-122780000D01*
X74510000Y-110980000D02*
X78610000Y-110980000D01*
X66410000Y-110980000D02*
X70510000Y-110980000D01*
X70510000Y-122780000D02*
X66410000Y-122780000D01*
X75510000Y-116880000D02*
G75*
G03*
X75510000Y-116880000I-3000000J0D01*
G01*
%TO.C,M3*%
D10*
X119190476Y-133252380D02*
X119190476Y-132252380D01*
X119523809Y-132966666D01*
X119857142Y-132252380D01*
X119857142Y-133252380D01*
X120238095Y-132252380D02*
X120857142Y-132252380D01*
X120523809Y-132633333D01*
X120666666Y-132633333D01*
X120761904Y-132680952D01*
X120809523Y-132728571D01*
X120857142Y-132823809D01*
X120857142Y-133061904D01*
X120809523Y-133157142D01*
X120761904Y-133204761D01*
X120666666Y-133252380D01*
X120380952Y-133252380D01*
X120285714Y-133204761D01*
X120238095Y-133157142D01*
X84190476Y-76252380D02*
X84190476Y-75252380D01*
X84523809Y-75966666D01*
X84857142Y-75252380D01*
X84857142Y-76252380D01*
X85238095Y-75252380D02*
X85857142Y-75252380D01*
X85523809Y-75633333D01*
X85666666Y-75633333D01*
X85761904Y-75680952D01*
X85809523Y-75728571D01*
X85857142Y-75823809D01*
X85857142Y-76061904D01*
X85809523Y-76157142D01*
X85761904Y-76204761D01*
X85666666Y-76252380D01*
X85380952Y-76252380D01*
X85285714Y-76204761D01*
X85238095Y-76157142D01*
X152190476Y-76252380D02*
X152190476Y-75252380D01*
X152523809Y-75966666D01*
X152857142Y-75252380D01*
X152857142Y-76252380D01*
X153238095Y-75252380D02*
X153857142Y-75252380D01*
X153523809Y-75633333D01*
X153666666Y-75633333D01*
X153761904Y-75680952D01*
X153809523Y-75728571D01*
X153857142Y-75823809D01*
X153857142Y-76061904D01*
X153809523Y-76157142D01*
X153761904Y-76204761D01*
X153666666Y-76252380D01*
X153380952Y-76252380D01*
X153285714Y-76204761D01*
X153238095Y-76157142D01*
%TO.C,J1*%
X106666666Y-104454380D02*
X106666666Y-105168666D01*
X106619047Y-105311523D01*
X106523809Y-105406761D01*
X106380952Y-105454380D01*
X106285714Y-105454380D01*
X107666666Y-105454380D02*
X107095238Y-105454380D01*
X107380952Y-105454380D02*
X107380952Y-104454380D01*
X107285714Y-104597238D01*
X107190476Y-104692476D01*
X107095238Y-104740095D01*
%TO.C,U1*%
X63162380Y-141731904D02*
X63971904Y-141731904D01*
X64067142Y-141684285D01*
X64114761Y-141636666D01*
X64162380Y-141541428D01*
X64162380Y-141350952D01*
X64114761Y-141255714D01*
X64067142Y-141208095D01*
X63971904Y-141160476D01*
X63162380Y-141160476D01*
X64162380Y-140160476D02*
X64162380Y-140731904D01*
X64162380Y-140446190D02*
X63162380Y-140446190D01*
X63305238Y-140541428D01*
X63400476Y-140636666D01*
X63448095Y-140731904D01*
%TO.C,SW7*%
X140346666Y-75874761D02*
X140489523Y-75922380D01*
X140727619Y-75922380D01*
X140822857Y-75874761D01*
X140870476Y-75827142D01*
X140918095Y-75731904D01*
X140918095Y-75636666D01*
X140870476Y-75541428D01*
X140822857Y-75493809D01*
X140727619Y-75446190D01*
X140537142Y-75398571D01*
X140441904Y-75350952D01*
X140394285Y-75303333D01*
X140346666Y-75208095D01*
X140346666Y-75112857D01*
X140394285Y-75017619D01*
X140441904Y-74970000D01*
X140537142Y-74922380D01*
X140775238Y-74922380D01*
X140918095Y-74970000D01*
X141251428Y-74922380D02*
X141489523Y-75922380D01*
X141680000Y-75208095D01*
X141870476Y-75922380D01*
X142108571Y-74922380D01*
X142394285Y-74922380D02*
X143060952Y-74922380D01*
X142632380Y-75922380D01*
%TO.C,SW1*%
X163206666Y-89844761D02*
X163349523Y-89892380D01*
X163587619Y-89892380D01*
X163682857Y-89844761D01*
X163730476Y-89797142D01*
X163778095Y-89701904D01*
X163778095Y-89606666D01*
X163730476Y-89511428D01*
X163682857Y-89463809D01*
X163587619Y-89416190D01*
X163397142Y-89368571D01*
X163301904Y-89320952D01*
X163254285Y-89273333D01*
X163206666Y-89178095D01*
X163206666Y-89082857D01*
X163254285Y-88987619D01*
X163301904Y-88940000D01*
X163397142Y-88892380D01*
X163635238Y-88892380D01*
X163778095Y-88940000D01*
X164111428Y-88892380D02*
X164349523Y-89892380D01*
X164540000Y-89178095D01*
X164730476Y-89892380D01*
X164968571Y-88892380D01*
X165873333Y-89892380D02*
X165301904Y-89892380D01*
X165587619Y-89892380D02*
X165587619Y-88892380D01*
X165492380Y-89035238D01*
X165397142Y-89130476D01*
X165301904Y-89178095D01*
%TO.C,SW3*%
X117486666Y-89844761D02*
X117629523Y-89892380D01*
X117867619Y-89892380D01*
X117962857Y-89844761D01*
X118010476Y-89797142D01*
X118058095Y-89701904D01*
X118058095Y-89606666D01*
X118010476Y-89511428D01*
X117962857Y-89463809D01*
X117867619Y-89416190D01*
X117677142Y-89368571D01*
X117581904Y-89320952D01*
X117534285Y-89273333D01*
X117486666Y-89178095D01*
X117486666Y-89082857D01*
X117534285Y-88987619D01*
X117581904Y-88940000D01*
X117677142Y-88892380D01*
X117915238Y-88892380D01*
X118058095Y-88940000D01*
X118391428Y-88892380D02*
X118629523Y-89892380D01*
X118820000Y-89178095D01*
X119010476Y-89892380D01*
X119248571Y-88892380D01*
X119534285Y-88892380D02*
X120153333Y-88892380D01*
X119820000Y-89273333D01*
X119962857Y-89273333D01*
X120058095Y-89320952D01*
X120105714Y-89368571D01*
X120153333Y-89463809D01*
X120153333Y-89701904D01*
X120105714Y-89797142D01*
X120058095Y-89844761D01*
X119962857Y-89892380D01*
X119677142Y-89892380D01*
X119581904Y-89844761D01*
X119534285Y-89797142D01*
%TO.C,SW5*%
X71766666Y-89844761D02*
X71909523Y-89892380D01*
X72147619Y-89892380D01*
X72242857Y-89844761D01*
X72290476Y-89797142D01*
X72338095Y-89701904D01*
X72338095Y-89606666D01*
X72290476Y-89511428D01*
X72242857Y-89463809D01*
X72147619Y-89416190D01*
X71957142Y-89368571D01*
X71861904Y-89320952D01*
X71814285Y-89273333D01*
X71766666Y-89178095D01*
X71766666Y-89082857D01*
X71814285Y-88987619D01*
X71861904Y-88940000D01*
X71957142Y-88892380D01*
X72195238Y-88892380D01*
X72338095Y-88940000D01*
X72671428Y-88892380D02*
X72909523Y-89892380D01*
X73100000Y-89178095D01*
X73290476Y-89892380D01*
X73528571Y-88892380D01*
X74385714Y-88892380D02*
X73909523Y-88892380D01*
X73861904Y-89368571D01*
X73909523Y-89320952D01*
X74004761Y-89273333D01*
X74242857Y-89273333D01*
X74338095Y-89320952D01*
X74385714Y-89368571D01*
X74433333Y-89463809D01*
X74433333Y-89701904D01*
X74385714Y-89797142D01*
X74338095Y-89844761D01*
X74242857Y-89892380D01*
X74004761Y-89892380D01*
X73909523Y-89844761D01*
X73861904Y-89797142D01*
%TO.C,SW2*%
X140346666Y-89844761D02*
X140489523Y-89892380D01*
X140727619Y-89892380D01*
X140822857Y-89844761D01*
X140870476Y-89797142D01*
X140918095Y-89701904D01*
X140918095Y-89606666D01*
X140870476Y-89511428D01*
X140822857Y-89463809D01*
X140727619Y-89416190D01*
X140537142Y-89368571D01*
X140441904Y-89320952D01*
X140394285Y-89273333D01*
X140346666Y-89178095D01*
X140346666Y-89082857D01*
X140394285Y-88987619D01*
X140441904Y-88940000D01*
X140537142Y-88892380D01*
X140775238Y-88892380D01*
X140918095Y-88940000D01*
X141251428Y-88892380D02*
X141489523Y-89892380D01*
X141680000Y-89178095D01*
X141870476Y-89892380D01*
X142108571Y-88892380D01*
X142441904Y-88987619D02*
X142489523Y-88940000D01*
X142584761Y-88892380D01*
X142822857Y-88892380D01*
X142918095Y-88940000D01*
X142965714Y-88987619D01*
X143013333Y-89082857D01*
X143013333Y-89178095D01*
X142965714Y-89320952D01*
X142394285Y-89892380D01*
X143013333Y-89892380D01*
%TO.C,SW10*%
X71290476Y-75874761D02*
X71433333Y-75922380D01*
X71671428Y-75922380D01*
X71766666Y-75874761D01*
X71814285Y-75827142D01*
X71861904Y-75731904D01*
X71861904Y-75636666D01*
X71814285Y-75541428D01*
X71766666Y-75493809D01*
X71671428Y-75446190D01*
X71480952Y-75398571D01*
X71385714Y-75350952D01*
X71338095Y-75303333D01*
X71290476Y-75208095D01*
X71290476Y-75112857D01*
X71338095Y-75017619D01*
X71385714Y-74970000D01*
X71480952Y-74922380D01*
X71719047Y-74922380D01*
X71861904Y-74970000D01*
X72195238Y-74922380D02*
X72433333Y-75922380D01*
X72623809Y-75208095D01*
X72814285Y-75922380D01*
X73052380Y-74922380D01*
X73957142Y-75922380D02*
X73385714Y-75922380D01*
X73671428Y-75922380D02*
X73671428Y-74922380D01*
X73576190Y-75065238D01*
X73480952Y-75160476D01*
X73385714Y-75208095D01*
X74576190Y-74922380D02*
X74671428Y-74922380D01*
X74766666Y-74970000D01*
X74814285Y-75017619D01*
X74861904Y-75112857D01*
X74909523Y-75303333D01*
X74909523Y-75541428D01*
X74861904Y-75731904D01*
X74814285Y-75827142D01*
X74766666Y-75874761D01*
X74671428Y-75922380D01*
X74576190Y-75922380D01*
X74480952Y-75874761D01*
X74433333Y-75827142D01*
X74385714Y-75731904D01*
X74338095Y-75541428D01*
X74338095Y-75303333D01*
X74385714Y-75112857D01*
X74433333Y-75017619D01*
X74480952Y-74970000D01*
X74576190Y-74922380D01*
%TO.C,SW9*%
X94626666Y-75874761D02*
X94769523Y-75922380D01*
X95007619Y-75922380D01*
X95102857Y-75874761D01*
X95150476Y-75827142D01*
X95198095Y-75731904D01*
X95198095Y-75636666D01*
X95150476Y-75541428D01*
X95102857Y-75493809D01*
X95007619Y-75446190D01*
X94817142Y-75398571D01*
X94721904Y-75350952D01*
X94674285Y-75303333D01*
X94626666Y-75208095D01*
X94626666Y-75112857D01*
X94674285Y-75017619D01*
X94721904Y-74970000D01*
X94817142Y-74922380D01*
X95055238Y-74922380D01*
X95198095Y-74970000D01*
X95531428Y-74922380D02*
X95769523Y-75922380D01*
X95960000Y-75208095D01*
X96150476Y-75922380D01*
X96388571Y-74922380D01*
X96817142Y-75922380D02*
X97007619Y-75922380D01*
X97102857Y-75874761D01*
X97150476Y-75827142D01*
X97245714Y-75684285D01*
X97293333Y-75493809D01*
X97293333Y-75112857D01*
X97245714Y-75017619D01*
X97198095Y-74970000D01*
X97102857Y-74922380D01*
X96912380Y-74922380D01*
X96817142Y-74970000D01*
X96769523Y-75017619D01*
X96721904Y-75112857D01*
X96721904Y-75350952D01*
X96769523Y-75446190D01*
X96817142Y-75493809D01*
X96912380Y-75541428D01*
X97102857Y-75541428D01*
X97198095Y-75493809D01*
X97245714Y-75446190D01*
X97293333Y-75350952D01*
%TO.C,SW8*%
X117486666Y-75874761D02*
X117629523Y-75922380D01*
X117867619Y-75922380D01*
X117962857Y-75874761D01*
X118010476Y-75827142D01*
X118058095Y-75731904D01*
X118058095Y-75636666D01*
X118010476Y-75541428D01*
X117962857Y-75493809D01*
X117867619Y-75446190D01*
X117677142Y-75398571D01*
X117581904Y-75350952D01*
X117534285Y-75303333D01*
X117486666Y-75208095D01*
X117486666Y-75112857D01*
X117534285Y-75017619D01*
X117581904Y-74970000D01*
X117677142Y-74922380D01*
X117915238Y-74922380D01*
X118058095Y-74970000D01*
X118391428Y-74922380D02*
X118629523Y-75922380D01*
X118820000Y-75208095D01*
X119010476Y-75922380D01*
X119248571Y-74922380D01*
X119772380Y-75350952D02*
X119677142Y-75303333D01*
X119629523Y-75255714D01*
X119581904Y-75160476D01*
X119581904Y-75112857D01*
X119629523Y-75017619D01*
X119677142Y-74970000D01*
X119772380Y-74922380D01*
X119962857Y-74922380D01*
X120058095Y-74970000D01*
X120105714Y-75017619D01*
X120153333Y-75112857D01*
X120153333Y-75160476D01*
X120105714Y-75255714D01*
X120058095Y-75303333D01*
X119962857Y-75350952D01*
X119772380Y-75350952D01*
X119677142Y-75398571D01*
X119629523Y-75446190D01*
X119581904Y-75541428D01*
X119581904Y-75731904D01*
X119629523Y-75827142D01*
X119677142Y-75874761D01*
X119772380Y-75922380D01*
X119962857Y-75922380D01*
X120058095Y-75874761D01*
X120105714Y-75827142D01*
X120153333Y-75731904D01*
X120153333Y-75541428D01*
X120105714Y-75446190D01*
X120058095Y-75398571D01*
X119962857Y-75350952D01*
%TO.C,SW6*%
X163206666Y-75874761D02*
X163349523Y-75922380D01*
X163587619Y-75922380D01*
X163682857Y-75874761D01*
X163730476Y-75827142D01*
X163778095Y-75731904D01*
X163778095Y-75636666D01*
X163730476Y-75541428D01*
X163682857Y-75493809D01*
X163587619Y-75446190D01*
X163397142Y-75398571D01*
X163301904Y-75350952D01*
X163254285Y-75303333D01*
X163206666Y-75208095D01*
X163206666Y-75112857D01*
X163254285Y-75017619D01*
X163301904Y-74970000D01*
X163397142Y-74922380D01*
X163635238Y-74922380D01*
X163778095Y-74970000D01*
X164111428Y-74922380D02*
X164349523Y-75922380D01*
X164540000Y-75208095D01*
X164730476Y-75922380D01*
X164968571Y-74922380D01*
X165778095Y-74922380D02*
X165587619Y-74922380D01*
X165492380Y-74970000D01*
X165444761Y-75017619D01*
X165349523Y-75160476D01*
X165301904Y-75350952D01*
X165301904Y-75731904D01*
X165349523Y-75827142D01*
X165397142Y-75874761D01*
X165492380Y-75922380D01*
X165682857Y-75922380D01*
X165778095Y-75874761D01*
X165825714Y-75827142D01*
X165873333Y-75731904D01*
X165873333Y-75493809D01*
X165825714Y-75398571D01*
X165778095Y-75350952D01*
X165682857Y-75303333D01*
X165492380Y-75303333D01*
X165397142Y-75350952D01*
X165349523Y-75398571D01*
X165301904Y-75493809D01*
%TO.C,SW4*%
X94626666Y-89844761D02*
X94769523Y-89892380D01*
X95007619Y-89892380D01*
X95102857Y-89844761D01*
X95150476Y-89797142D01*
X95198095Y-89701904D01*
X95198095Y-89606666D01*
X95150476Y-89511428D01*
X95102857Y-89463809D01*
X95007619Y-89416190D01*
X94817142Y-89368571D01*
X94721904Y-89320952D01*
X94674285Y-89273333D01*
X94626666Y-89178095D01*
X94626666Y-89082857D01*
X94674285Y-88987619D01*
X94721904Y-88940000D01*
X94817142Y-88892380D01*
X95055238Y-88892380D01*
X95198095Y-88940000D01*
X95531428Y-88892380D02*
X95769523Y-89892380D01*
X95960000Y-89178095D01*
X96150476Y-89892380D01*
X96388571Y-88892380D01*
X97198095Y-89225714D02*
X97198095Y-89892380D01*
X96960000Y-88844761D02*
X96721904Y-89559047D01*
X97340952Y-89559047D01*
%TO.C,SW12*%
X98260476Y-124484761D02*
X98403333Y-124532380D01*
X98641428Y-124532380D01*
X98736666Y-124484761D01*
X98784285Y-124437142D01*
X98831904Y-124341904D01*
X98831904Y-124246666D01*
X98784285Y-124151428D01*
X98736666Y-124103809D01*
X98641428Y-124056190D01*
X98450952Y-124008571D01*
X98355714Y-123960952D01*
X98308095Y-123913333D01*
X98260476Y-123818095D01*
X98260476Y-123722857D01*
X98308095Y-123627619D01*
X98355714Y-123580000D01*
X98450952Y-123532380D01*
X98689047Y-123532380D01*
X98831904Y-123580000D01*
X99165238Y-123532380D02*
X99403333Y-124532380D01*
X99593809Y-123818095D01*
X99784285Y-124532380D01*
X100022380Y-123532380D01*
X100927142Y-124532380D02*
X100355714Y-124532380D01*
X100641428Y-124532380D02*
X100641428Y-123532380D01*
X100546190Y-123675238D01*
X100450952Y-123770476D01*
X100355714Y-123818095D01*
X101308095Y-123627619D02*
X101355714Y-123580000D01*
X101450952Y-123532380D01*
X101689047Y-123532380D01*
X101784285Y-123580000D01*
X101831904Y-123627619D01*
X101879523Y-123722857D01*
X101879523Y-123818095D01*
X101831904Y-123960952D01*
X101260476Y-124532380D01*
X101879523Y-124532380D01*
%TO.C,SW15*%
X166840476Y-124484761D02*
X166983333Y-124532380D01*
X167221428Y-124532380D01*
X167316666Y-124484761D01*
X167364285Y-124437142D01*
X167411904Y-124341904D01*
X167411904Y-124246666D01*
X167364285Y-124151428D01*
X167316666Y-124103809D01*
X167221428Y-124056190D01*
X167030952Y-124008571D01*
X166935714Y-123960952D01*
X166888095Y-123913333D01*
X166840476Y-123818095D01*
X166840476Y-123722857D01*
X166888095Y-123627619D01*
X166935714Y-123580000D01*
X167030952Y-123532380D01*
X167269047Y-123532380D01*
X167411904Y-123580000D01*
X167745238Y-123532380D02*
X167983333Y-124532380D01*
X168173809Y-123818095D01*
X168364285Y-124532380D01*
X168602380Y-123532380D01*
X169507142Y-124532380D02*
X168935714Y-124532380D01*
X169221428Y-124532380D02*
X169221428Y-123532380D01*
X169126190Y-123675238D01*
X169030952Y-123770476D01*
X168935714Y-123818095D01*
X170411904Y-123532380D02*
X169935714Y-123532380D01*
X169888095Y-124008571D01*
X169935714Y-123960952D01*
X170030952Y-123913333D01*
X170269047Y-123913333D01*
X170364285Y-123960952D01*
X170411904Y-124008571D01*
X170459523Y-124103809D01*
X170459523Y-124341904D01*
X170411904Y-124437142D01*
X170364285Y-124484761D01*
X170269047Y-124532380D01*
X170030952Y-124532380D01*
X169935714Y-124484761D01*
X169888095Y-124437142D01*
%TO.C,SW14*%
X143980476Y-124484761D02*
X144123333Y-124532380D01*
X144361428Y-124532380D01*
X144456666Y-124484761D01*
X144504285Y-124437142D01*
X144551904Y-124341904D01*
X144551904Y-124246666D01*
X144504285Y-124151428D01*
X144456666Y-124103809D01*
X144361428Y-124056190D01*
X144170952Y-124008571D01*
X144075714Y-123960952D01*
X144028095Y-123913333D01*
X143980476Y-123818095D01*
X143980476Y-123722857D01*
X144028095Y-123627619D01*
X144075714Y-123580000D01*
X144170952Y-123532380D01*
X144409047Y-123532380D01*
X144551904Y-123580000D01*
X144885238Y-123532380D02*
X145123333Y-124532380D01*
X145313809Y-123818095D01*
X145504285Y-124532380D01*
X145742380Y-123532380D01*
X146647142Y-124532380D02*
X146075714Y-124532380D01*
X146361428Y-124532380D02*
X146361428Y-123532380D01*
X146266190Y-123675238D01*
X146170952Y-123770476D01*
X146075714Y-123818095D01*
X147504285Y-123865714D02*
X147504285Y-124532380D01*
X147266190Y-123484761D02*
X147028095Y-124199047D01*
X147647142Y-124199047D01*
%TO.C,SW13*%
X121120476Y-124484761D02*
X121263333Y-124532380D01*
X121501428Y-124532380D01*
X121596666Y-124484761D01*
X121644285Y-124437142D01*
X121691904Y-124341904D01*
X121691904Y-124246666D01*
X121644285Y-124151428D01*
X121596666Y-124103809D01*
X121501428Y-124056190D01*
X121310952Y-124008571D01*
X121215714Y-123960952D01*
X121168095Y-123913333D01*
X121120476Y-123818095D01*
X121120476Y-123722857D01*
X121168095Y-123627619D01*
X121215714Y-123580000D01*
X121310952Y-123532380D01*
X121549047Y-123532380D01*
X121691904Y-123580000D01*
X122025238Y-123532380D02*
X122263333Y-124532380D01*
X122453809Y-123818095D01*
X122644285Y-124532380D01*
X122882380Y-123532380D01*
X123787142Y-124532380D02*
X123215714Y-124532380D01*
X123501428Y-124532380D02*
X123501428Y-123532380D01*
X123406190Y-123675238D01*
X123310952Y-123770476D01*
X123215714Y-123818095D01*
X124120476Y-123532380D02*
X124739523Y-123532380D01*
X124406190Y-123913333D01*
X124549047Y-123913333D01*
X124644285Y-123960952D01*
X124691904Y-124008571D01*
X124739523Y-124103809D01*
X124739523Y-124341904D01*
X124691904Y-124437142D01*
X124644285Y-124484761D01*
X124549047Y-124532380D01*
X124263333Y-124532380D01*
X124168095Y-124484761D01*
X124120476Y-124437142D01*
%TO.C,SW11*%
X75400476Y-124484761D02*
X75543333Y-124532380D01*
X75781428Y-124532380D01*
X75876666Y-124484761D01*
X75924285Y-124437142D01*
X75971904Y-124341904D01*
X75971904Y-124246666D01*
X75924285Y-124151428D01*
X75876666Y-124103809D01*
X75781428Y-124056190D01*
X75590952Y-124008571D01*
X75495714Y-123960952D01*
X75448095Y-123913333D01*
X75400476Y-123818095D01*
X75400476Y-123722857D01*
X75448095Y-123627619D01*
X75495714Y-123580000D01*
X75590952Y-123532380D01*
X75829047Y-123532380D01*
X75971904Y-123580000D01*
X76305238Y-123532380D02*
X76543333Y-124532380D01*
X76733809Y-123818095D01*
X76924285Y-124532380D01*
X77162380Y-123532380D01*
X78067142Y-124532380D02*
X77495714Y-124532380D01*
X77781428Y-124532380D02*
X77781428Y-123532380D01*
X77686190Y-123675238D01*
X77590952Y-123770476D01*
X77495714Y-123818095D01*
X79019523Y-124532380D02*
X78448095Y-124532380D01*
X78733809Y-124532380D02*
X78733809Y-123532380D01*
X78638571Y-123675238D01*
X78543333Y-123770476D01*
X78448095Y-123818095D01*
%TD*%
M02*
