M48
; DRILL file {KiCad (5.1.6)-1} date 09/01/20 19:54:05
; FORMAT={-:-/ absolute / inch / decimal}
; #@! TF.CreationDate,2020-09-01T19:54:05-04:00
; #@! TF.GenerationSoftware,Kicad,Pcbnew,(5.1.6)-1
FMAT,2
INCH
T1C0.0315
T2C0.0394
T3C0.0433
T4C0.0591
T5C0.1260
%
G90
G05
T1
X2.6Y-5.25
X2.6Y-5.85
X2.7Y-5.25
X2.7Y-5.85
X2.8Y-5.25
X2.8Y-5.85
X2.9Y-5.25
X2.9Y-5.85
X3.0Y-5.25
X3.0Y-5.85
X3.1Y-5.25
X3.1Y-5.85
X3.2Y-5.25
X3.2Y-5.85
X3.3Y-5.25
X3.3Y-5.85
X3.4Y-5.25
X3.4Y-5.85
X3.5Y-5.25
X3.5Y-5.85
X3.6Y-5.25
X3.6Y-5.85
X3.7Y-5.25
X3.7Y-5.85
X3.8Y-5.25
X3.8Y-5.85
X3.9Y-5.25
X3.9Y-5.85
X4.0Y-5.25
X4.0Y-5.85
X4.1Y-5.25
X4.1Y-5.85
X4.2Y-5.25
X4.2Y-5.85
X4.3Y-5.25
X4.3Y-5.85
X4.4Y-5.25
X4.4Y-5.85
X4.5Y-5.25
X4.5Y-5.85
T2
X6.1791Y-4.5031
X6.1791Y-4.7
X6.75Y-4.5031
X6.75Y-4.6016
X6.75Y-4.7
X5.2791Y-4.5031
X5.2791Y-4.7
X5.85Y-4.5031
X5.85Y-4.6016
X5.85Y-4.7
X4.3791Y-4.5031
X4.3791Y-4.7
X4.95Y-4.5031
X4.95Y-4.6016
X4.95Y-4.7
X4.2126Y-4.2126
X2.5791Y-4.5031
X2.5791Y-4.7
X3.15Y-4.5031
X3.15Y-4.6016
X3.15Y-4.7
X3.4791Y-4.5031
X3.4791Y-4.7
X4.05Y-4.5031
X4.05Y-4.6016
X4.05Y-4.7
T3
X3.65Y-3.05
X3.65Y-3.2272
X3.9059Y-3.05
X3.9059Y-3.2272
X5.45Y-3.6
X5.45Y-3.7772
X5.7059Y-3.6
X5.7059Y-3.7772
X2.75Y-3.05
X2.75Y-3.2272
X3.0059Y-3.05
X3.0059Y-3.2272
X3.65Y-3.6
X3.65Y-3.7772
X3.9059Y-3.6
X3.9059Y-3.7772
X2.75Y-3.6
X2.75Y-3.7772
X3.0059Y-3.6
X3.0059Y-3.7772
X4.55Y-3.6
X4.55Y-3.7772
X4.8059Y-3.6
X4.8059Y-3.7772
X4.55Y-3.05
X4.55Y-3.2272
X4.8059Y-3.05
X4.8059Y-3.2272
X5.45Y-3.05
X5.45Y-3.2272
X5.7059Y-3.05
X5.7059Y-3.2272
X6.35Y-3.05
X6.35Y-3.2272
X6.6059Y-3.05
X6.6059Y-3.2272
X6.35Y-3.6
X6.35Y-3.7772
X6.6059Y-3.6
X6.6059Y-3.7772
T5
X4.7244Y-5.3937
X6.0236Y-3.1496
X3.3465Y-3.1496
T4
G00X6.4803Y-4.3811
M15
G01X6.4291Y-4.3811
M16
G05
G00X6.4803Y-4.822
M15
G01X6.4291Y-4.822
M16
G05
G00X5.5803Y-4.3811
M15
G01X5.5291Y-4.3811
M16
G05
G00X5.5803Y-4.822
M15
G01X5.5291Y-4.822
M16
G05
G00X4.6803Y-4.3811
M15
G01X4.6291Y-4.3811
M16
G05
G00X4.6803Y-4.822
M15
G01X4.6291Y-4.822
M16
G05
G00X2.8803Y-4.3811
M15
G01X2.8291Y-4.3811
M16
G05
G00X2.8803Y-4.822
M15
G01X2.8291Y-4.822
M16
G05
G00X3.7803Y-4.3811
M15
G01X3.7291Y-4.3811
M16
G05
G00X3.7803Y-4.822
M15
G01X3.7291Y-4.822
M16
G05
T0
M30
