%TF.GenerationSoftware,KiCad,Pcbnew,(5.1.6)-1*%
%TF.CreationDate,2020-09-01T19:54:00-04:00*%
%TF.ProjectId,autopilotv1,6175746f-7069-46c6-9f74-76312e6b6963,rev?*%
%TF.SameCoordinates,Original*%
%TF.FileFunction,Soldermask,Bot*%
%TF.FilePolarity,Negative*%
%FSLAX46Y46*%
G04 Gerber Fmt 4.6, Leading zero omitted, Abs format (unit mm)*
G04 Created by KiCad (PCBNEW (5.1.6)-1) date 2020-09-01 19:54:00*
%MOMM*%
%LPD*%
G01*
G04 APERTURE LIST*
%ADD10C,6.500000*%
%ADD11R,2.100000X2.100000*%
%ADD12O,1.700000X1.700000*%
%ADD13R,1.700000X1.700000*%
%ADD14C,2.100000*%
%ADD15R,3.300000X2.100000*%
G04 APERTURE END LIST*
D10*
%TO.C,M3*%
X120000000Y-137000000D03*
%TD*%
%TO.C,M3*%
X85000000Y-80000000D03*
%TD*%
%TO.C,M3*%
X153000000Y-80000000D03*
%TD*%
D11*
%TO.C,J1*%
X107000000Y-107000000D03*
%TD*%
D12*
%TO.C,U1*%
X66040000Y-133350000D03*
X114300000Y-148590000D03*
X68580000Y-133350000D03*
X111760000Y-148590000D03*
X71120000Y-133350000D03*
X109220000Y-148590000D03*
X73660000Y-133350000D03*
X106680000Y-148590000D03*
X76200000Y-133350000D03*
X104140000Y-148590000D03*
X78740000Y-133350000D03*
X101600000Y-148590000D03*
X81280000Y-133350000D03*
X99060000Y-148590000D03*
X83820000Y-133350000D03*
X96520000Y-148590000D03*
X86360000Y-133350000D03*
X93980000Y-148590000D03*
X88900000Y-133350000D03*
X91440000Y-148590000D03*
X91440000Y-133350000D03*
X88900000Y-148590000D03*
X93980000Y-133350000D03*
X86360000Y-148590000D03*
X96520000Y-133350000D03*
X83820000Y-148590000D03*
X99060000Y-133350000D03*
X81280000Y-148590000D03*
X101600000Y-133350000D03*
X78740000Y-148590000D03*
X104140000Y-133350000D03*
X76200000Y-148590000D03*
X106680000Y-133350000D03*
X73660000Y-148590000D03*
X109220000Y-133350000D03*
X71120000Y-148590000D03*
X111760000Y-133350000D03*
X68580000Y-148590000D03*
X114300000Y-133350000D03*
D13*
X66040000Y-148590000D03*
%TD*%
D14*
%TO.C,SW7*%
X144930000Y-77470000D03*
X144930000Y-81970000D03*
X138430000Y-77470000D03*
X138430000Y-81970000D03*
%TD*%
%TO.C,SW1*%
X167790000Y-91440000D03*
X167790000Y-95940000D03*
X161290000Y-91440000D03*
X161290000Y-95940000D03*
%TD*%
%TO.C,SW3*%
X115570000Y-95940000D03*
X115570000Y-91440000D03*
X122070000Y-95940000D03*
X122070000Y-91440000D03*
%TD*%
%TO.C,SW5*%
X76350000Y-91440000D03*
X76350000Y-95940000D03*
X69850000Y-91440000D03*
X69850000Y-95940000D03*
%TD*%
%TO.C,SW2*%
X144930000Y-91440000D03*
X144930000Y-95940000D03*
X138430000Y-91440000D03*
X138430000Y-95940000D03*
%TD*%
%TO.C,SW10*%
X76350000Y-77470000D03*
X76350000Y-81970000D03*
X69850000Y-77470000D03*
X69850000Y-81970000D03*
%TD*%
%TO.C,SW9*%
X99210000Y-77470000D03*
X99210000Y-81970000D03*
X92710000Y-77470000D03*
X92710000Y-81970000D03*
%TD*%
%TO.C,SW8*%
X122070000Y-77470000D03*
X122070000Y-81970000D03*
X115570000Y-77470000D03*
X115570000Y-81970000D03*
%TD*%
%TO.C,SW6*%
X167790000Y-77470000D03*
X167790000Y-81970000D03*
X161290000Y-77470000D03*
X161290000Y-81970000D03*
%TD*%
%TO.C,SW4*%
X99210000Y-91440000D03*
X99210000Y-95940000D03*
X92710000Y-91440000D03*
X92710000Y-95940000D03*
%TD*%
%TO.C,SW12*%
X88370000Y-114380000D03*
X88370000Y-119380000D03*
D15*
X95370000Y-111280000D03*
X95370000Y-122480000D03*
D14*
X102870000Y-114380000D03*
X102870000Y-116880000D03*
D11*
X102870000Y-119380000D03*
%TD*%
%TO.C,SW15*%
X171450000Y-119380000D03*
D14*
X171450000Y-116880000D03*
X171450000Y-114380000D03*
D15*
X163950000Y-122480000D03*
X163950000Y-111280000D03*
D14*
X156950000Y-119380000D03*
X156950000Y-114380000D03*
%TD*%
%TO.C,SW14*%
X134090000Y-114380000D03*
X134090000Y-119380000D03*
D15*
X141090000Y-111280000D03*
X141090000Y-122480000D03*
D14*
X148590000Y-114380000D03*
X148590000Y-116880000D03*
D11*
X148590000Y-119380000D03*
%TD*%
D14*
%TO.C,SW13*%
X111230000Y-114380000D03*
X111230000Y-119380000D03*
D15*
X118230000Y-111280000D03*
X118230000Y-122480000D03*
D14*
X125730000Y-114380000D03*
X125730000Y-116880000D03*
D11*
X125730000Y-119380000D03*
%TD*%
D14*
%TO.C,SW11*%
X65510000Y-114380000D03*
X65510000Y-119380000D03*
D15*
X72510000Y-111280000D03*
X72510000Y-122480000D03*
D14*
X80010000Y-114380000D03*
X80010000Y-116880000D03*
D11*
X80010000Y-119380000D03*
%TD*%
M02*
